<?xml version='1.0' encoding='UTF-8' standalone='no'?>
<!-- Created with Fritzing (http://www.fritzing.org/) -->
<svg xmlns:svg='http://www.w3.org/2000/svg' xmlns='http://www.w3.org/2000/svg' version='1.2' baseProfile='tiny' x='0in' y='0in' width='0.7in' height='1.2in' viewBox='0 0 50.4 86.4' >
<g partID='57630'><g  id="breadboard" gorn="0.2">
 <g  id="icon" gorn="0.2.0">
  <path  stroke-width="0" fill="#014cb1" d="M50.4,86.4L0,86.4L0,0L50.4,0L50.4,86.4M45.3827,82.8a1.41732,1.41732,0,1,0,2.83465,0,1.41732,1.41732,0,1,0,-2.83465,0zM45.3827,75.6a1.41732,1.41732,0,1,0,2.83465,0,1.41732,1.41732,0,1,0,-2.83465,0zM45.3827,68.4a1.41732,1.41732,0,1,0,2.83465,0,1.41732,1.41732,0,1,0,-2.83465,0zM45.3827,61.2a1.41732,1.41732,0,1,0,2.83465,0,1.41732,1.41732,0,1,0,-2.83465,0zM45.3827,54a1.41732,1.41732,0,1,0,2.83465,0,1.41732,1.41732,0,1,0,-2.83465,0zM45.3827,46.8a1.41732,1.41732,0,1,0,2.83465,0,1.41732,1.41732,0,1,0,-2.83465,0zM45.3827,39.6a1.41732,1.41732,0,1,0,2.83465,0,1.41732,1.41732,0,1,0,-2.83465,0zM45.3827,32.4a1.41732,1.41732,0,1,0,2.83465,0,1.41732,1.41732,0,1,0,-2.83465,0zM45.3827,25.2a1.41732,1.41732,0,1,0,2.83465,0,1.41732,1.41732,0,1,0,-2.83465,0zM45.3827,18a1.41732,1.41732,0,1,0,2.83465,0,1.41732,1.41732,0,1,0,-2.83465,0zM45.3827,10.8a1.41732,1.41732,0,1,0,2.83465,0,1.41732,1.41732,0,1,0,-2.83465,0zM45.3827,3.6a1.41732,1.41732,0,1,0,2.83465,0,1.41732,1.41732,0,1,0,-2.83465,0zM2.18268,3.6a1.41732,1.41732,0,1,0,2.83465,0,1.41732,1.41732,0,1,0,-2.83465,0zM2.18268,10.8a1.41732,1.41732,0,1,0,2.83465,0,1.41732,1.41732,0,1,0,-2.83465,0zM2.18268,18a1.41732,1.41732,0,1,0,2.83465,0,1.41732,1.41732,0,1,0,-2.83465,0zM2.18268,25.2a1.41732,1.41732,0,1,0,2.83465,0,1.41732,1.41732,0,1,0,-2.83465,0zM2.18268,32.4a1.41732,1.41732,0,1,0,2.83465,0,1.41732,1.41732,0,1,0,-2.83465,0zM2.18268,39.6a1.41732,1.41732,0,1,0,2.83465,0,1.41732,1.41732,0,1,0,-2.83465,0zM2.18268,46.8a1.41732,1.41732,0,1,0,2.83465,0,1.41732,1.41732,0,1,0,-2.83465,0zM2.18268,54a1.41732,1.41732,0,1,0,2.83465,0,1.41732,1.41732,0,1,0,-2.83465,0zM2.18268,61.2a1.41732,1.41732,0,1,0,2.83465,0,1.41732,1.41732,0,1,0,-2.83465,0zM2.18268,68.4a1.41732,1.41732,0,1,0,2.83465,0,1.41732,1.41732,0,1,0,-2.83465,0zM2.18268,75.6a1.41732,1.41732,0,1,0,2.83465,0,1.41732,1.41732,0,1,0,-2.83465,0zM2.18268,82.8a1.41732,1.41732,0,1,0,2.83465,0,1.41732,1.41732,0,1,0,-2.83465,0zM21.6567,79.2a3.54331,3.54331,0,1,0,7.08661,0,3.54331,3.54331,0,1,0,-7.08661,0zM21.6567,7.2a3.54331,3.54331,0,1,0,7.08661,0,3.54331,3.54331,0,1,0,-7.08661,0z" stroke="none"/>
  <g >
   <title >layer 21</title>
   <g >
    <title >text:SC7</title>
    <text  x="43.92" stroke-width="0" fill="#ffffff" text-anchor="end" font-family="OCRA" font-size="3.3408" y="5.2704" stroke="none">SC7</text>
   </g>
   <g >
    <title >text:SC6</title>
    <text  x="44.28" stroke-width="0" fill="#ffffff" text-anchor="end" font-family="OCRA" font-size="3.3408" y="21.1104" stroke="none">SC6</text>
   </g>
   <g >
    <title >text:SC5</title>
    <text  x="43.92" stroke-width="0" fill="#ffffff" text-anchor="end" font-family="OCRA" font-size="3.3408" y="34.0704" stroke="none">SC5</text>
   </g>
   <g >
    <title >text:SC4</title>
    <text  x="43.92" stroke-width="0" fill="#ffffff" text-anchor="end" font-family="OCRA" font-size="3.3408" y="48.4704" stroke="none">SC4</text>
   </g>
   <g >
    <title >text:SC3</title>
    <text  x="43.92" stroke-width="0" fill="#ffffff" text-anchor="end" font-family="OCRA" font-size="3.3408" y="62.8704" stroke="none">SC3</text>
   </g>
   <g >
    <title >text:SC2</title>
    <text  x="43.92" stroke-width="0" fill="#ffffff" text-anchor="end" font-family="OCRA" font-size="3.3408" y="77.2704" stroke="none">SC2</text>
   </g>
   <g >
    <title >text:SC1</title>
    <text  x="6.48" stroke-width="0" fill="#ffffff" text-anchor="start" font-family="OCRA" font-size="3.3408" y="84.4704" stroke="none">SC1</text>
   </g>
   <g >
    <title >text:SC0</title>
    <text  x="6.48" stroke-width="0" fill="#ffffff" text-anchor="start" font-family="OCRA" font-size="3.3408" y="70.0704" stroke="none">SC0</text>
   </g>
   <g >
    <title >text:SD0</title>
    <text  x="6.48" stroke-width="0" fill="#ffffff" text-anchor="start" font-family="OCRA" font-size="3.3408" y="62.8704" stroke="none">SD0</text>
   </g>
   <g >
    <title >text:SD1</title>
    <text  x="6.48" stroke-width="0" fill="#ffffff" text-anchor="start" font-family="OCRA" font-size="3.3408" y="77.2704" stroke="none">SD1</text>
   </g>
   <g >
    <title >text:SD2</title>
    <text  x="43.92" stroke-width="0" fill="#ffffff" text-anchor="end" font-family="OCRA" font-size="3.3408" y="84.4704" stroke="none">SD2</text>
   </g>
   <g >
    <title >text:SD3</title>
    <text  x="43.92" stroke-width="0" fill="#ffffff" text-anchor="end" font-family="OCRA" font-size="3.3408" y="70.0704" stroke="none">SD3</text>
   </g>
   <g >
    <title >text:SD4</title>
    <text  x="43.92" stroke-width="0" fill="#ffffff" text-anchor="end" font-family="OCRA" font-size="3.3408" y="55.6704" stroke="none">SD4</text>
   </g>
   <g >
    <title >text:SD5</title>
    <text  x="43.92" stroke-width="0" fill="#ffffff" text-anchor="end" font-family="OCRA" font-size="3.3408" y="41.2704" stroke="none">SD5</text>
   </g>
   <g >
    <title >text:SD6</title>
    <text  x="43.92" stroke-width="0" fill="#ffffff" text-anchor="end" font-family="OCRA" font-size="3.3408" y="26.8704" stroke="none">SD6</text>
   </g>
   <g >
    <title >text:SD7</title>
    <text  x="43.92" stroke-width="0" fill="#ffffff" text-anchor="end" font-family="OCRA" font-size="3.3408" y="12.4704" stroke="none">SD7</text>
   </g>
   <g >
    <title >text:A0</title>
    <text  x="6.48" stroke-width="0" fill="#ffffff" text-anchor="start" font-family="OCRA" font-size="3.3408" y="41.2704" stroke="none">A0</text>
   </g>
   <g >
    <title >text:A1</title>
    <text  x="6.48" stroke-width="0" fill="#ffffff" text-anchor="start" font-family="OCRA" font-size="3.3408" y="48.4704" stroke="none">A1</text>
   </g>
   <g >
    <title >text:A2</title>
    <text  x="6.84" stroke-width="0" fill="#ffffff" text-anchor="start" font-family="OCRA" font-size="3.3408" y="55.6704" stroke="none">A2</text>
   </g>
   <g >
    <title >text:RST</title>
    <text  x="6.48" stroke-width="0" fill="#ffffff" text-anchor="start" font-family="OCRA" font-size="3.3408" y="34.0704" stroke="none">RST</text>
   </g>
   <g >
    <title >text:SCL</title>
    <text  x="6.48" stroke-width="0" fill="#ffffff" text-anchor="start" font-family="OCRA" font-size="3.3408" y="26.8704" stroke="none">SCL</text>
   </g>
   <g >
    <title >text:SDA</title>
    <text  x="6.48" stroke-width="0" fill="#ffffff" text-anchor="start" font-family="OCRA" font-size="3.3408" y="21.1104" stroke="none">SDA</text>
   </g>
   <g >
    <title >text:GND</title>
    <text  x="6.48" stroke-width="0" fill="#ffffff" text-anchor="start" font-family="OCRA" font-size="3.3408" y="12.4704" stroke="none">GND</text>
   </g>
   <g >
    <title >text:VIN</title>
    <text  x="6.48" stroke-width="0" fill="#ffffff" text-anchor="start" font-family="OCRA" font-size="3.3408" y="5.2704" stroke="none">VIN</text>
   </g>
   <g >
    <title >text:I2C Expander</title>
    <g transform="matrix(1, 0, 0, 1, 0, -1.8792)">
     <g >
      <g >
       <g >
        <text  x="26.28" stroke-width="0" fill="#ffffff" text-anchor="middle" font-family="OCRA" font-size="3.7584" y="70.6392" stroke="none">I2C</text>
       </g>
      </g>
     </g>
    </g>
    <g transform="matrix(1, 0, 0, 1, 0, 1.8792)">
     <g >
      <g >
       <g >
        <text  x="26.28" stroke-width="0" fill="#ffffff" text-anchor="middle" font-family="OCRA" font-size="3.7584" y="70.6392" stroke="none">Expander</text>
       </g>
      </g>
     </g>
    </g>
   </g>
   <g >
    <title >text:TCA9548A</title>
    <text  x="25.2" stroke-width="0" fill="#ffffff" text-anchor="middle" font-family="OCRA" font-size="4.5936" y="18.1368" stroke="none">TCA9548A</text>
   </g>
   <g >
    <title >element:A0</title>
    <g >
     <title >package:SOLDERJUMPER_ARROW_NOPASTE</title>
    </g>
   </g>
   <g >
    <title >element:A1</title>
    <g >
     <title >package:SOLDERJUMPER_ARROW_NOPASTE</title>
    </g>
   </g>
   <g >
    <title >element:A2</title>
    <g >
     <title >package:SOLDERJUMPER_ARROW_NOPASTE</title>
    </g>
   </g>
   <g >
    <title >element:C1</title>
    <g >
     <title >package:0805-NO</title>
     <line  y2="24.48" stroke-width="0.864" x2="20.88" y1="24.48" x1="23.76" stroke-linecap="round" stroke="white"/>
    </g>
   </g>
   <g >
    <title >element:FID1</title>
    <g >
     <title >package:FIDUCIAL_1MM</title>
    </g>
   </g>
   <g >
    <title >element:FID3</title>
    <g >
     <title >package:FIDUCIAL_1MM</title>
    </g>
   </g>
   <g >
    <title >element:JP1</title>
    <g >
     <title >package:1X12_ROUND</title>
    </g>
   </g>
   <g >
    <title >element:JP3</title>
    <g >
     <title >package:1X12_ROUND</title>
    </g>
   </g>
   <g >
    <title >element:R1</title>
    <g >
     <title >package:0805-NO</title>
     <line  y2="24.48" stroke-width="0.864" x2="32.04" y1="24.48" x1="34.92" stroke-linecap="round" stroke="white"/>
    </g>
   </g>
   <g >
    <title >element:R2</title>
    <g >
     <title >package:0805-NO</title>
     <line  y2="24.48" stroke-width="0.864" x2="29.16" y1="24.48" x1="26.28" stroke-linecap="round" stroke="white"/>
    </g>
   </g>
   <g >
    <title >element:R3</title>
    <g >
     <title >package:0805-NO</title>
     <line  y2="57.24" stroke-width="0.864" x2="29.16" y1="57.24" x1="32.04" stroke-linecap="round" stroke="white"/>
    </g>
   </g>
   <g >
    <title >element:R4</title>
    <g >
     <title >package:0805-NO</title>
     <line  y2="57.24" stroke-width="0.864" x2="26.28" y1="57.24" x1="23.4" stroke-linecap="round" stroke="white"/>
    </g>
   </g>
   <g >
    <title >element:R5</title>
    <g >
     <title >package:0805-NO</title>
     <line  y2="57.24" stroke-width="0.864" x2="20.88" y1="57.24" x1="18" stroke-linecap="round" stroke="white"/>
    </g>
   </g>
   <g >
    <title >element:R6</title>
    <g >
     <title >package:_0805MP</title>
     <line  y2="24.48" stroke-width="0.576" x2="18" y1="24.48" x1="15.12" stroke-linecap="round" stroke="white"/>
    </g>
   </g>
   <g >
    <title >element:SCLPU</title>
    <g >
     <title >package:SOLDERJUMPER_CLOSEDWIRE</title>
    </g>
   </g>
   <g >
    <title >element:SDAPU</title>
    <g >
     <title >package:SOLDERJUMPER_CLOSEDWIRE</title>
    </g>
   </g>
   <g >
    <title >element:U$4</title>
    <g >
     <title >package:MOUNTINGHOLE_2.5_PLATED</title>
     <circle  stroke-width="0.576" fill="none" r="5.66929" cy="79.2" cx="25.2" stroke="white"/>
    </g>
   </g>
   <g >
    <title >element:U$5</title>
    <g >
     <title >package:MOUNTINGHOLE_2.5_PLATED</title>
     <circle  stroke-width="0.576" fill="none" r="5.66929" cy="7.2" cx="25.2" stroke="white"/>
    </g>
   </g>
   <g >
    <title >element:U$6</title>
    <g >
     <title >package:PCBFEAT-REV-040</title>
    </g>
   </g>
   <g >
    <title >element:U$7</title>
    <g >
     <title >package:ADAFRUIT_TEXT_20MM</title>
    </g>
   </g>
   <g >
    <title >element:U1</title>
    <g >
     <title >package:TSSOP24</title>
     <line  y2="51.853" stroke-width="0.432" x2="18.7291" y1="30.227" x1="18.7291" stroke-linecap="round" stroke="white"/>
     <line  y2="51.853" stroke-width="0.432" x2="18.7291" y1="51.853" x1="31.6709" stroke-linecap="round" stroke="white"/>
     <line  y2="30.227" stroke-width="0.432" x2="31.6709" y1="51.853" x1="31.6709" stroke-linecap="round" stroke="white"/>
     <line  y2="30.227" stroke-width="0.432" x2="31.6709" y1="30.227" x1="18.7291" stroke-linecap="round" stroke="white"/>
     <line  y2="51.205" stroke-width="0.144" x2="19.3771" y1="30.875" x1="19.3771" stroke-linecap="round" stroke="white"/>
     <line  y2="51.205" stroke-width="0.144" x2="19.3771" y1="51.205" x1="31.0229" stroke-linecap="round" stroke="white"/>
     <line  y2="30.875" stroke-width="0.144" x2="31.0229" y1="51.205" x1="31.0229" stroke-linecap="round" stroke="white"/>
     <line  y2="30.875" stroke-width="0.144" x2="31.0229" y1="30.875" x1="19.3771" stroke-linecap="round" stroke="white"/>
     <circle  stroke-width="0.432" fill="none" r="1.296" cy="32.747" cx="21.744" stroke="white"/>
    </g>
   </g>
  </g>
  <g transform="matrix(0, 1, -1, 0, 44.1071, -0.532913)">
   <g >
    <g >
     <g >
      <rect  x="20.4774" height="4.25197" stroke-width="0" id="connector0pin" fill="#9A916C" width="3.68504" y="19.6611" stroke="none" gorn="0.2.0.2.0.0.0"/>
     </g>
    </g>
   </g>
  </g>
  <g transform="matrix(0, 1, -1, 0, 49.4929, 4.85292)">
   <g >
    <g >
     <g >
      <rect  x="20.4774" height="4.25197" stroke-width="0" id="connector1pin" fill="#9A916C" width="3.68504" y="25.0469" stroke="none" gorn="0.2.0.3.0.0.0"/>
     </g>
    </g>
   </g>
  </g>
  <rect  x="15.1427" height="2.83465" stroke-width="0" id="connector2pin" fill="#9A916C" width="2.83465" ry="1.41732" y="1.46268" rx="1.41732" stroke="none" gorn="0.2.0.4"/>
  <rect  x="33.1427" height="2.83465" stroke-width="0" id="connector3pin" fill="#9A916C" width="2.83465" ry="1.41732" y="77.7823" rx="1.41732" stroke="none" gorn="0.2.0.5"/>
  <circle  connectorname="2SDA" stroke-width="0.95868" id="connector4pin" fill="none" r="1.89666" cy="82.8" cx="46.8" stroke="#9A916C" gorn="0.2.0.6"/>
  <circle  connectorname="2SCL" stroke-width="0.95868" id="connector5pin" fill="none" r="1.89666" cy="75.6" cx="46.8" stroke="#9A916C" gorn="0.2.0.7"/>
  <circle  connectorname="3SDA" stroke-width="0.95868" id="connector6pin" fill="none" r="1.89666" cy="68.4" cx="46.8" stroke="#9A916C" gorn="0.2.0.8"/>
  <circle  connectorname="3SCL" stroke-width="0.95868" id="connector7pin" fill="none" r="1.89666" cy="61.2" cx="46.8" stroke="#9A916C" gorn="0.2.0.9"/>
  <circle  connectorname="4SDA" stroke-width="0.95868" id="connector8pin" fill="none" r="1.89666" cy="54" cx="46.8" stroke="#9A916C" gorn="0.2.0.10"/>
  <circle  connectorname="4SCL" stroke-width="0.95868" id="connector9pin" fill="none" r="1.89666" cy="46.8" cx="46.8" stroke="#9A916C" gorn="0.2.0.11"/>
  <circle  connectorname="5SDA" stroke-width="0.95868" id="connector10pin" fill="none" r="1.89666" cy="39.6" cx="46.8" stroke="#9A916C" gorn="0.2.0.12"/>
  <circle  connectorname="5SCL" stroke-width="0.95868" id="connector11pin" fill="none" r="1.89666" cy="32.4" cx="46.8" stroke="#9A916C" gorn="0.2.0.13"/>
  <circle  connectorname="6SDA" stroke-width="0.95868" id="connector12pin" fill="none" r="1.89666" cy="25.2" cx="46.8" stroke="#9A916C" gorn="0.2.0.14"/>
  <circle  connectorname="6SCL" stroke-width="0.95868" id="connector13pin" fill="none" r="1.89666" cy="18" cx="46.8" stroke="#9A916C" gorn="0.2.0.15"/>
  <circle  connectorname="7SDA" stroke-width="0.95868" id="connector14pin" fill="none" r="1.89666" cy="10.8" cx="46.8" stroke="#9A916C" gorn="0.2.0.16"/>
  <circle  connectorname="7SCL" stroke-width="0.95868" id="connector15pin" fill="none" r="1.89666" cy="3.6" cx="46.8" stroke="#9A916C" gorn="0.2.0.17"/>
  <circle  connectorname="VCC" stroke-width="0.95868" id="connector16pin" fill="none" r="1.89666" cy="3.6" cx="3.6" stroke="#9A916C" gorn="0.2.0.18"/>
  <circle  connectorname="GND" stroke-width="0.95868" id="connector17pin" fill="none" r="1.89666" cy="10.8" cx="3.6" stroke="#9A916C" gorn="0.2.0.19"/>
  <circle  connectorname="INPUTSDA" stroke-width="0.95868" id="connector18pin" fill="none" r="1.89666" cy="18" cx="3.6" stroke="#9A916C" gorn="0.2.0.20"/>
  <circle  connectorname="INPUTSCL" stroke-width="0.95868" id="connector19pin" fill="none" r="1.89666" cy="25.2" cx="3.6" stroke="#9A916C" gorn="0.2.0.21"/>
  <circle  connectorname="RESET" stroke-width="0.95868" id="connector20pin" fill="none" r="1.89666" cy="32.4" cx="3.6" stroke="#9A916C" gorn="0.2.0.22"/>
  <circle  connectorname="A0" stroke-width="0.95868" id="connector21pin" fill="none" r="1.89666" cy="39.6" cx="3.6" stroke="#9A916C" gorn="0.2.0.23"/>
  <circle  connectorname="A1" stroke-width="0.95868" id="connector22pin" fill="none" r="1.89666" cy="46.8" cx="3.6" stroke="#9A916C" gorn="0.2.0.24"/>
  <circle  connectorname="A2" stroke-width="0.95868" id="connector23pin" fill="none" r="1.89666" cy="54" cx="3.6" stroke="#9A916C" gorn="0.2.0.25"/>
  <circle  connectorname="0SDA" stroke-width="0.95868" id="connector24pin" fill="none" r="1.89666" cy="61.2" cx="3.6" stroke="#9A916C" gorn="0.2.0.26"/>
  <circle  connectorname="0SCL" stroke-width="0.95868" id="connector25pin" fill="none" r="1.89666" cy="68.4" cx="3.6" stroke="#9A916C" gorn="0.2.0.27"/>
  <circle  connectorname="1SDA" stroke-width="0.95868" id="connector26pin" fill="none" r="1.89666" cy="75.6" cx="3.6" stroke="#9A916C" gorn="0.2.0.28"/>
  <circle  connectorname="1SCL" stroke-width="0.95868" id="connector27pin" fill="none" r="1.89666" cy="82.8" cx="3.6" stroke="#9A916C" gorn="0.2.0.29"/>
  <g transform="matrix(0, 1, -1, 0, 55.2671, -11.6929)">
   <g >
    <g >
     <g >
      <rect  x="31.6374" height="4.25197" stroke-width="0" id="connector28pin" fill="#9A916C" width="3.68504" y="19.6611" stroke="none" gorn="0.2.0.30.0.0.0"/>
     </g>
    </g>
   </g>
  </g>
  <g transform="matrix(0, 1, -1, 0, 60.6529, -6.30708)">
   <g >
    <g >
     <g >
      <rect  x="31.6374" height="4.25197" stroke-width="0" id="connector29pin" fill="#9A916C" width="3.68504" y="25.0469" stroke="none" gorn="0.2.0.31.0.0.0"/>
     </g>
    </g>
   </g>
  </g>
  <g transform="matrix(0, -1, 1, 0, 0.547087, 54.8929)">
   <g >
    <g >
     <g >
      <rect  x="25.8774" height="4.25197" stroke-width="0" id="connector30pin" fill="#9A916C" width="3.68504" y="25.0469" stroke="none" gorn="0.2.0.32.0.0.0"/>
     </g>
    </g>
   </g>
  </g>
  <g transform="matrix(0, -1, 1, 0, 5.93292, 49.5071)">
   <g >
    <g >
     <g >
      <rect  x="25.8774" height="4.25197" stroke-width="0" id="connector31pin" fill="#9A916C" width="3.68504" y="19.6611" stroke="none" gorn="0.2.0.33.0.0.0"/>
     </g>
    </g>
   </g>
  </g>
  <g transform="matrix(0, 1, -1, 0, 85.1472, 23.9471)">
   <g >
    <g >
     <g >
      <rect  x="28.7574" height="4.25197" stroke-width="0" id="connector32pin" fill="#9A916C" width="3.68504" y="52.4211" stroke="none" gorn="0.2.0.34.0.0.0"/>
     </g>
    </g>
   </g>
  </g>
  <g transform="matrix(0, 1, -1, 0, 90.5328, 29.3329)">
   <g >
    <g >
     <g >
      <rect  x="28.7574" height="4.25197" stroke-width="0" id="connector33pin" fill="#9A916C" width="3.68504" y="57.8069" stroke="none" gorn="0.2.0.35.0.0.0"/>
     </g>
    </g>
   </g>
  </g>
  <g transform="matrix(0, -1, 1, 0, -35.0929, 84.7728)">
   <g >
    <g >
     <g >
      <rect  x="22.9974" height="4.25197" stroke-width="0" id="connector34pin" fill="#9A916C" width="3.68504" y="57.8069" stroke="none" gorn="0.2.0.36.0.0.0"/>
     </g>
    </g>
   </g>
  </g>
  <g transform="matrix(0, -1, 1, 0, -29.7071, 79.3872)">
   <g >
    <g >
     <g >
      <rect  x="22.9974" height="4.25197" stroke-width="0" id="connector35pin" fill="#9A916C" width="3.68504" y="52.4211" stroke="none" gorn="0.2.0.37.0.0.0"/>
     </g>
    </g>
   </g>
  </g>
  <g transform="matrix(0, -1, 1, 0, -40.4929, 79.3728)">
   <g >
    <g >
     <g >
      <rect  x="17.5974" height="4.25197" stroke-width="0" id="connector36pin" fill="#9A916C" width="3.68504" y="57.8069" stroke="none" gorn="0.2.0.38.0.0.0"/>
     </g>
    </g>
   </g>
  </g>
  <g transform="matrix(0, -1, 1, 0, -35.1071, 73.9872)">
   <g >
    <g >
     <g >
      <rect  x="17.5974" height="4.25197" stroke-width="0" id="connector37pin" fill="#9A916C" width="3.68504" y="52.4211" stroke="none" gorn="0.2.0.39.0.0.0"/>
     </g>
    </g>
   </g>
  </g>
  <g transform="matrix(0, -1, 1, 0, -10.8, 43.92)">
   <g >
    <g >
     <g >
      <rect  x="14.8592" height="3.68504" stroke-width="0" id="connector38pin" fill="#9A916C" width="3.40158" y="25.5174" stroke="none" gorn="0.2.0.40.0.0.0"/>
     </g>
    </g>
   </g>
  </g>
  <g transform="matrix(0, -1, 1, 0, -5.04, 38.16)">
   <g >
    <g >
     <g >
      <rect  x="14.8592" height="3.68504" stroke-width="0" id="connector39pin" fill="#9A916C" width="3.40158" y="19.7574" stroke="none" gorn="0.2.0.41.0.0.0"/>
     </g>
    </g>
   </g>
  </g>
  <circle  connectorname="P$1" stroke-width="1.44" id="connector40pin" fill="none" r="4.26331" cy="79.2" cx="25.2" stroke="#9A916C" gorn="0.2.0.42"/>
  <circle  connectorname="P$1" stroke-width="1.44" id="connector41pin" fill="none" r="4.26331" cy="7.2" cx="25.2" stroke="#9A916C" gorn="0.2.0.43"/>
  <g transform="matrix(0, 1, -1, 0, 47.8352, 13.9771)">
   <g >
    <g >
     <g >
      <rect  x="16.4971" height="2.808" stroke-width="0" id="connector42pin" fill="#9A916C" width="0.864" y="29.5021" stroke="none" gorn="0.2.0.44.0.0.0"/>
     </g>
    </g>
   </g>
  </g>
  <g transform="matrix(0, 1, -1, 0, 49.6778, 15.8196)">
   <g >
    <g >
     <g >
      <rect  x="16.4971" height="2.808" stroke-width="0" id="connector43pin" fill="#9A916C" width="0.864" y="31.3447" stroke="none" gorn="0.2.0.45.0.0.0"/>
     </g>
    </g>
   </g>
  </g>
  <g transform="matrix(0, 1, -1, 0, 51.5202, 17.6621)">
   <g >
    <g >
     <g >
      <rect  x="16.4971" height="2.808" stroke-width="0" id="connector44pin" fill="#9A916C" width="0.864" y="33.1872" stroke="none" gorn="0.2.0.46.0.0.0"/>
     </g>
    </g>
   </g>
  </g>
  <g transform="matrix(0, 1, -1, 0, 53.3628, 19.5047)">
   <g >
    <g >
     <g >
      <rect  x="16.4971" height="2.808" stroke-width="0" id="connector45pin" fill="#9A916C" width="0.864" y="35.0297" stroke="none" gorn="0.2.0.47.0.0.0"/>
     </g>
    </g>
   </g>
  </g>
  <g transform="matrix(0, 1, -1, 0, 55.2053, 21.3471)">
   <g >
    <g >
     <g >
      <rect  x="16.4971" height="2.808" stroke-width="0" id="connector46pin" fill="#9A916C" width="0.864" y="36.8722" stroke="none" gorn="0.2.0.48.0.0.0"/>
     </g>
    </g>
   </g>
  </g>
  <g transform="matrix(0, 1, -1, 0, 57.0478, 23.1897)">
   <g >
    <g >
     <g >
      <rect  x="16.4971" height="2.808" stroke-width="0" id="connector47pin" fill="#9A916C" width="0.864" y="38.7148" stroke="none" gorn="0.2.0.49.0.0.0"/>
     </g>
    </g>
   </g>
  </g>
  <g transform="matrix(0, 1, -1, 0, 58.8903, 25.0322)">
   <g >
    <g >
     <g >
      <rect  x="16.4971" height="2.808" stroke-width="0" id="connector48pin" fill="#9A916C" width="0.864" y="40.5572" stroke="none" gorn="0.2.0.50.0.0.0"/>
     </g>
    </g>
   </g>
  </g>
  <g transform="matrix(0, 1, -1, 0, 60.7329, 26.8747)">
   <g >
    <g >
     <g >
      <rect  x="16.4971" height="2.808" stroke-width="0" id="connector49pin" fill="#9A916C" width="0.864" y="42.3998" stroke="none" gorn="0.2.0.51.0.0.0"/>
     </g>
    </g>
   </g>
  </g>
  <g transform="matrix(0, 1, -1, 0, 62.5753, 28.7172)">
   <g >
    <g >
     <g >
      <rect  x="16.4971" height="2.808" stroke-width="0" id="connector50pin" fill="#9A916C" width="0.864" y="44.2423" stroke="none" gorn="0.2.0.52.0.0.0"/>
     </g>
    </g>
   </g>
  </g>
  <g transform="matrix(0, 1, -1, 0, 64.4179, 30.5598)">
   <g >
    <g >
     <g >
      <rect  x="16.4971" height="2.808" stroke-width="0" id="connector51pin" fill="#9A916C" width="0.864" y="46.0848" stroke="none" gorn="0.2.0.53.0.0.0"/>
     </g>
    </g>
   </g>
  </g>
  <g transform="matrix(0, 1, -1, 0, 66.2604, 32.4022)">
   <g >
    <g >
     <g >
      <rect  x="16.4971" height="2.808" stroke-width="0" id="connector52pin" fill="#9A916C" width="0.864" y="47.9273" stroke="none" gorn="0.2.0.54.0.0.0"/>
     </g>
    </g>
   </g>
  </g>
  <g transform="matrix(0, 1, -1, 0, 68.1029, 34.2448)">
   <g >
    <g >
     <g >
      <rect  x="16.4971" height="2.808" stroke-width="0" id="connector53pin" fill="#9A916C" width="0.864" y="49.7699" stroke="none" gorn="0.2.0.55.0.0.0"/>
     </g>
    </g>
   </g>
  </g>
  <g transform="matrix(0, 1, -1, 0, 84.6446, 17.7029)">
   <g >
    <g >
     <g >
      <rect  x="33.0389" height="2.808" stroke-width="0" id="connector54pin" fill="#9A916C" width="0.864" y="49.7699" stroke="none" gorn="0.2.0.56.0.0.0"/>
     </g>
    </g>
   </g>
  </g>
  <g transform="matrix(0, 1, -1, 0, 82.8022, 15.8604)">
   <g >
    <g >
     <g >
      <rect  x="33.0389" height="2.808" stroke-width="0" id="connector55pin" fill="#9A916C" width="0.864" y="47.9273" stroke="none" gorn="0.2.0.57.0.0.0"/>
     </g>
    </g>
   </g>
  </g>
  <g transform="matrix(0, 1, -1, 0, 80.9597, 14.0179)">
   <g >
    <g >
     <g >
      <rect  x="33.0389" height="2.808" stroke-width="0" id="connector56pin" fill="#9A916C" width="0.864" y="46.0848" stroke="none" gorn="0.2.0.58.0.0.0"/>
     </g>
    </g>
   </g>
  </g>
  <g transform="matrix(0, 1, -1, 0, 79.1172, 12.1753)">
   <g >
    <g >
     <g >
      <rect  x="33.0389" height="2.808" stroke-width="0" id="connector57pin" fill="#9A916C" width="0.864" y="44.2423" stroke="none" gorn="0.2.0.59.0.0.0"/>
     </g>
    </g>
   </g>
  </g>
  <g transform="matrix(0, 1, -1, 0, 77.2747, 10.3329)">
   <g >
    <g >
     <g >
      <rect  x="33.0389" height="2.808" stroke-width="0" id="connector58pin" fill="#9A916C" width="0.864" y="42.3998" stroke="none" gorn="0.2.0.60.0.0.0"/>
     </g>
    </g>
   </g>
  </g>
  <g transform="matrix(0, 1, -1, 0, 75.4322, 8.49031)">
   <g >
    <g >
     <g >
      <rect  x="33.0389" height="2.808" stroke-width="0" id="connector59pin" fill="#9A916C" width="0.864" y="40.5572" stroke="none" gorn="0.2.0.61.0.0.0"/>
     </g>
    </g>
   </g>
  </g>
  <g transform="matrix(0, 1, -1, 0, 73.5898, 6.64781)">
   <g >
    <g >
     <g >
      <rect  x="33.0389" height="2.808" stroke-width="0" id="connector60pin" fill="#9A916C" width="0.864" y="38.7148" stroke="none" gorn="0.2.0.62.0.0.0"/>
     </g>
    </g>
   </g>
  </g>
  <g transform="matrix(0, 1, -1, 0, 71.7471, 4.80529)">
   <g >
    <g >
     <g >
      <rect  x="33.0389" height="2.808" stroke-width="0" id="connector61pin" fill="#9A916C" width="0.864" y="36.8722" stroke="none" gorn="0.2.0.63.0.0.0"/>
     </g>
    </g>
   </g>
  </g>
  <g transform="matrix(0, 1, -1, 0, 69.9047, 2.96277)">
   <g >
    <g >
     <g >
      <rect  x="33.0389" height="2.808" stroke-width="0" id="connector62pin" fill="#9A916C" width="0.864" y="35.0297" stroke="none" gorn="0.2.0.64.0.0.0"/>
     </g>
    </g>
   </g>
  </g>
  <g transform="matrix(0, 1, -1, 0, 68.0621, 1.12026)">
   <g >
    <g >
     <g >
      <rect  x="33.0389" height="2.808" stroke-width="0" id="connector63pin" fill="#9A916C" width="0.864" y="33.1872" stroke="none" gorn="0.2.0.65.0.0.0"/>
     </g>
    </g>
   </g>
  </g>
  <g transform="matrix(0, 1, -1, 0, 66.2196, -0.722268)">
   <g >
    <g >
     <g >
      <rect  x="33.0389" height="2.808" stroke-width="0" id="connector64pin" fill="#9A916C" width="0.864" y="31.3447" stroke="none" gorn="0.2.0.66.0.0.0"/>
     </g>
    </g>
   </g>
  </g>
  <g transform="matrix(0, 1, -1, 0, 64.3771, -2.56478)">
   <g >
    <g >
     <g >
      <rect  x="33.0389" height="2.808" stroke-width="0" id="connector65pin" fill="#9A916C" width="0.864" y="29.5021" stroke="none" gorn="0.2.0.67.0.0.0"/>
     </g>
    </g>
   </g>
  </g>
 </g>
 <g transform="matrix(1, 0, 0, 1, 19.4855, 22.7085)">
  <g >
   <g >
    <g  id="0805-cap" gorn="0.2.1.0.0">
     <g transform="matrix(0, 1, -1, 0, 4.606, -1.063)">
      <g >
       <g >
        <g >
         <path  fill="#DCDCDC" d="M5.386,3.543L0.283,3.543C0.127,3.543,0,3.416,0,3.26L0,0.283C0,0.127,0.127,0,0.283,0l5.102,0c0.157,0,0.283,0.127,0.283,0.283L5.668,3.26C5.669,3.416,5.542,3.543,5.386,3.543z"/>
         <rect  x="1.063" height="3.543" fill="#6E554B" width="3.543"/>
        </g>
       </g>
      </g>
     </g>
    </g>
   </g>
  </g>
 </g>
 <g transform="matrix(1, 0, 0, 1, 30.6455, 22.7085)">
  <g >
   <g >
    <g  id="0805-res" gorn="0.2.2.0.0">
     <g transform="matrix(0, 1, -1, 0, 4.606, -1.063)">
      <g >
       <g >
        <g >
         <path  fill="#DCDCDC" d="M5.386,3.543L0.283,3.543C0.127,3.543,0,3.416,0,3.26L0,0.283C0,0.127,0.127,0,0.283,0l5.102,0c0.157,0,0.283,0.127,0.283,0.283L5.668,3.26C5.669,3.416,5.542,3.543,5.386,3.543z"/>
         <rect  x="1.063" height="3.543" fill="#333333" width="3.543"/>
        </g>
       </g>
      </g>
     </g>
    </g>
   </g>
  </g>
 </g>
 <g transform="matrix(1, 0, 0, 1, 24.8855, 22.7085)">
  <g >
   <g >
    <g  id="0805-res" gorn="0.2.3.0.0">
     <g transform="matrix(0, -1, 1, 0, 1.063, 4.606)">
      <g >
       <g >
        <g >
         <path  fill="#DCDCDC" d="M5.386,3.543L0.283,3.543C0.127,3.543,0,3.416,0,3.26L0,0.283C0,0.127,0.127,0,0.283,0l5.102,0c0.157,0,0.283,0.127,0.283,0.283L5.668,3.26C5.669,3.416,5.542,3.543,5.386,3.543z"/>
         <rect  x="1.063" height="3.543" fill="#333333" width="3.543"/>
        </g>
       </g>
      </g>
     </g>
    </g>
   </g>
  </g>
 </g>
 <g transform="matrix(1, 0, 0, 1, 27.7655, 55.4685)">
  <g >
   <g >
    <g  id="0805-res" gorn="0.2.4.0.0">
     <g transform="matrix(0, 1, -1, 0, 4.606, -1.063)">
      <g >
       <g >
        <g >
         <path  fill="#DCDCDC" d="M5.386,3.543L0.283,3.543C0.127,3.543,0,3.416,0,3.26L0,0.283C0,0.127,0.127,0,0.283,0l5.102,0c0.157,0,0.283,0.127,0.283,0.283L5.668,3.26C5.669,3.416,5.542,3.543,5.386,3.543z"/>
         <rect  x="1.063" height="3.543" fill="#333333" width="3.543"/>
        </g>
       </g>
      </g>
     </g>
    </g>
   </g>
  </g>
 </g>
 <g transform="matrix(1, 0, 0, 1, 22.0055, 55.4685)">
  <g >
   <g >
    <g  id="0805-res" gorn="0.2.5.0.0">
     <g transform="matrix(0, -1, 1, 0, 1.063, 4.606)">
      <g >
       <g >
        <g >
         <path  fill="#DCDCDC" d="M5.386,3.543L0.283,3.543C0.127,3.543,0,3.416,0,3.26L0,0.283C0,0.127,0.127,0,0.283,0l5.102,0c0.157,0,0.283,0.127,0.283,0.283L5.668,3.26C5.669,3.416,5.542,3.543,5.386,3.543z"/>
         <rect  x="1.063" height="3.543" fill="#333333" width="3.543"/>
        </g>
       </g>
      </g>
     </g>
    </g>
   </g>
  </g>
 </g>
 <g transform="matrix(1, 0, 0, 1, 16.6055, 55.4685)">
  <g >
   <g >
    <g  id="0805-res" gorn="0.2.6.0.0">
     <g transform="matrix(0, -1, 1, 0, 1.063, 4.606)">
      <g >
       <g >
        <g >
         <path  fill="#DCDCDC" d="M5.386,3.543L0.283,3.543C0.127,3.543,0,3.416,0,3.26L0,0.283C0,0.127,0.127,0,0.283,0l5.102,0c0.157,0,0.283,0.127,0.283,0.283L5.668,3.26C5.669,3.416,5.542,3.543,5.386,3.543z"/>
         <rect  x="1.063" height="3.543" fill="#333333" width="3.543"/>
        </g>
       </g>
      </g>
     </g>
    </g>
   </g>
  </g>
 </g>
 <g transform="matrix(1, 0, 0, 1, 13.7255, 22.7085)">
  <g >
   <g >
    <g  id="0805-res" gorn="0.2.7.0.0">
     <g transform="matrix(0, -1, 1, 0, 1.063, 4.606)">
      <g >
       <g >
        <g >
         <path  fill="#DCDCDC" d="M5.386,3.543L0.283,3.543C0.127,3.543,0,3.416,0,3.26L0,0.283C0,0.127,0.127,0,0.283,0l5.102,0c0.157,0,0.283,0.127,0.283,0.283L5.668,3.26C5.669,3.416,5.542,3.543,5.386,3.543z"/>
         <rect  x="1.063" height="3.543" fill="#333333" width="3.543"/>
        </g>
       </g>
      </g>
     </g>
    </g>
   </g>
  </g>
 </g>
 <g transform="matrix(1, 0, 0, 1, 13.738, 32.4198)">
  <g >
   <g >
    <g  id="tssop24" gorn="0.2.8.0.0">
     <g transform="matrix(0, 1, -1, 0, 20.0822, -2.84184)">
      <g >
       <g >
        <g >
         <metadata  id="metadata155">
          <rdf:RDF xmlns:rdf="http://www.w3.org/1999/02/22-rdf-syntax-ns#">
           <cc:Work xmlns:cc="http://creativecommons.org/ns#" rdf:about="" xmlns:rdf="http://www.w3.org/1999/02/22-rdf-syntax-ns#">
            <dc:format xmlns:dc="http://purl.org/dc/elements/1.1/">image/svg+xml</dc:format>
            <dc:type xmlns:dc="http://purl.org/dc/elements/1.1/" rdf:resource="http://purl.org/dc/dcmitype/StillImage" xmlns:rdf="http://www.w3.org/1999/02/22-rdf-syntax-ns#"/>
            <dc:title xmlns:dc="http://purl.org/dc/elements/1.1/"/>
           </cc:Work>
          </rdf:RDF>
         </metadata>
         <defs  id="defs153"/>
         <g transform="matrix(1, 0, 0, 1, -14.4721, -14.4661)">
          <g >
           <g >
            <g  style="display:none" id="g85" display="none" gorn="0.2.8.0.0.0.0.0.2.0.0">
             <g  style="display:inline" id="g87" display="inline" gorn="0.2.8.0.0.0.0.0.2.0.0.0">
              <g transform="matrix(1, 0, 0, 1, 1.37816, 8.32183)">
               <g >
                <g >
                 <text  style="font-family:DroidSans;" id="text89" fill="#ffffff" font-size="0" gorn="0.2.8.0.0.0.0.0.2.0.0.0.0.0.0">16</text>
                </g>
               </g>
              </g>
             </g>
             <g  style="display:inline" id="g91" display="inline" gorn="0.2.8.0.0.0.0.0.2.0.0.1">
              <g transform="matrix(1, 0, 0, 1, 7.16408, 8.32183)">
               <g >
                <g >
                 <text  style="font-family:DroidSans;" id="text93" fill="#ffffff" font-size="0" gorn="0.2.8.0.0.0.0.0.2.0.0.1.0.0.0">15</text>
                </g>
               </g>
              </g>
             </g>
             <g  style="display:inline" id="g95" display="inline" gorn="0.2.8.0.0.0.0.0.2.0.0.2">
              <g transform="matrix(1, 0, 0, 1, 12.95, 8.32183)">
               <g >
                <g >
                 <text  style="font-family:DroidSans;" id="text97" fill="#ffffff" font-size="0" gorn="0.2.8.0.0.0.0.0.2.0.0.2.0.0.0">14</text>
                </g>
               </g>
              </g>
             </g>
             <g  style="display:inline" id="g99" display="inline" gorn="0.2.8.0.0.0.0.0.2.0.0.3">
              <g transform="matrix(1, 0, 0, 1, 18.7344, 8.32262)">
               <g >
                <g >
                 <text  style="font-family:DroidSans;" id="text101" fill="#ffffff" font-size="0" gorn="0.2.8.0.0.0.0.0.2.0.0.3.0.0.0">13</text>
                </g>
               </g>
              </g>
             </g>
             <g  style="display:inline" id="g103" display="inline" gorn="0.2.8.0.0.0.0.0.2.0.0.4">
              <g transform="matrix(1, 0, 0, 1, 25.3218, 8.32262)">
               <g >
                <g >
                 <text  style="font-family:DroidSans;" id="text105" fill="#ffffff" font-size="0" gorn="0.2.8.0.0.0.0.0.2.0.0.4.0.0.0">12</text>
                </g>
               </g>
              </g>
             </g>
             <g  style="display:inline" id="g107" display="inline" gorn="0.2.8.0.0.0.0.0.2.0.0.5">
              <g transform="matrix(1, 0, 0, 1, 30.3062, 8.32183)">
               <g >
                <g >
                 <text  style="font-family:DroidSans;" id="text109" fill="#ffffff" font-size="0" gorn="0.2.8.0.0.0.0.0.2.0.0.5.0.0.0">11</text>
                </g>
               </g>
              </g>
             </g>
             <g  style="display:inline" id="g111" display="inline" gorn="0.2.8.0.0.0.0.0.2.0.0.6">
              <g transform="matrix(1, 0, 0, 1, 36.0922, 8.32183)">
               <g >
                <g >
                 <text  style="font-family:DroidSans;" id="text113" fill="#ffffff" font-size="0" gorn="0.2.8.0.0.0.0.0.2.0.0.6.0.0.0">10</text>
                </g>
               </g>
              </g>
             </g>
             <g  style="display:inline" id="g115" display="inline" gorn="0.2.8.0.0.0.0.0.2.0.0.7">
              <g transform="matrix(1, 0, 0, 1, 42.6781, 8.32183)">
               <g >
                <g >
                 <text  style="font-family:DroidSans;" id="text117" fill="#ffffff" font-size="0" gorn="0.2.8.0.0.0.0.0.2.0.0.7.0.0.0">9</text>
                </g>
               </g>
              </g>
             </g>
             <g  style="display:inline" id="g119" display="inline" gorn="0.2.8.0.0.0.0.0.2.0.0.8">
              <g transform="matrix(1, 0, 0, 1, 42.6781, 40.2219)">
               <g >
                <g >
                 <text  style="font-family:DroidSans;" id="text121" fill="#ffffff" font-size="0" gorn="0.2.8.0.0.0.0.0.2.0.0.8.0.0.0">8</text>
                </g>
               </g>
              </g>
             </g>
             <g  style="display:inline" id="g123" display="inline" gorn="0.2.8.0.0.0.0.0.2.0.0.9">
              <g transform="matrix(1, 0, 0, 1, 36.8922, 40.2219)">
               <g >
                <g >
                 <text  style="font-family:DroidSans;" id="text125" fill="#ffffff" font-size="0" gorn="0.2.8.0.0.0.0.0.2.0.0.9.0.0.0">7</text>
                </g>
               </g>
              </g>
             </g>
             <g  style="display:inline" id="g127" display="inline" gorn="0.2.8.0.0.0.0.0.2.0.0.10">
              <g transform="matrix(1, 0, 0, 1, 31.1062, 40.2219)">
               <g >
                <g >
                 <text  style="font-family:DroidSans;" id="text129" fill="#ffffff" font-size="0" gorn="0.2.8.0.0.0.0.0.2.0.0.10.0.0.0">6</text>
                </g>
               </g>
              </g>
             </g>
             <g  style="display:inline" id="g131" display="inline" gorn="0.2.8.0.0.0.0.0.2.0.0.11">
              <g transform="matrix(1, 0, 0, 1, 25.3218, 40.2219)">
               <g >
                <g >
                 <text  style="font-family:DroidSans;" id="text133" fill="#ffffff" font-size="0" gorn="0.2.8.0.0.0.0.0.2.0.0.11.0.0.0">5</text>
                </g>
               </g>
              </g>
             </g>
             <g  style="display:inline" id="g135" display="inline" gorn="0.2.8.0.0.0.0.0.2.0.0.12">
              <g transform="matrix(1, 0, 0, 1, 19.5344, 40.2219)">
               <g >
                <g >
                 <text  style="font-family:DroidSans;" id="text137" fill="#ffffff" font-size="0" gorn="0.2.8.0.0.0.0.0.2.0.0.12.0.0.0">4</text>
                </g>
               </g>
              </g>
             </g>
             <g  style="display:inline" id="g139" display="inline" gorn="0.2.8.0.0.0.0.0.2.0.0.13">
              <g transform="matrix(1, 0, 0, 1, 13.75, 40.2219)">
               <g >
                <g >
                 <text  style="font-family:DroidSans;" id="text141" fill="#ffffff" font-size="0" gorn="0.2.8.0.0.0.0.0.2.0.0.13.0.0.0">3</text>
                </g>
               </g>
              </g>
             </g>
             <g  style="display:inline" id="g143" display="inline" gorn="0.2.8.0.0.0.0.0.2.0.0.14">
              <g transform="matrix(1, 0, 0, 1, 7.96406, 40.2219)">
               <g >
                <g >
                 <text  style="font-family:DroidSans;" id="text145" fill="#ffffff" font-size="0" gorn="0.2.8.0.0.0.0.0.2.0.0.14.0.0.0">2</text>
                </g>
               </g>
              </g>
             </g>
             <g  style="display:inline" id="g147" display="inline" gorn="0.2.8.0.0.0.0.0.2.0.0.15">
              <g transform="matrix(1, 0, 0, 1, 2.17816, 40.2219)">
               <g >
                <g >
                 <text  style="font-family:DroidSans;" id="text149" fill="#ffffff" font-size="0" gorn="0.2.8.0.0.0.0.0.2.0.0.15.0.0.0">1</text>
                </g>
               </g>
              </g>
             </g>
            </g>
           </g>
          </g>
         </g>
         <g transform="scale(1.29,1.29)">
          <g >
           <g >
            <g  id="g4315" gorn="0.2.8.0.0.0.0.0.3.0.0">
             <g transform="matrix(1.46864, 0, 0, 1, -25.0386, -16.404)">
              <g >
               <g >
                <polygon  id="polygon39" fill="#3d3d3d" points="28.6816,19.8352,17.0488,19.8352,17.0488,17.5984,29.1488,17.5984" gorn="0.2.8.0.0.0.0.0.3.0.0.0.0.0"/>
               </g>
              </g>
             </g>
             <g transform="matrix(1.46672, 0, 0, 1, -25.0057, -16.404)">
              <g >
               <g >
                <polygon  id="polygon41" points="29.1488,28.36,17.0488,28.36,17.0488,26.056,28.6816,26.056" gorn="0.2.8.0.0.0.0.0.3.0.0.1.0.0"/>
               </g>
              </g>
             </g>
             <rect  x="0.725602" height="1.9768" id="rect45" fill="#8c8c8c" width="0.732802" y="11.3712" gorn="0.2.8.0.0.0.0.0.3.0.0.2"/>
             <rect  x="2.1608" height="1.9768" id="rect47" fill="#8c8c8c" width="0.732802" y="11.3712" gorn="0.2.8.0.0.0.0.0.3.0.0.3"/>
             <rect  x="3.596" height="1.9768" id="rect49" fill="#8c8c8c" width="0.732002" y="11.3712" gorn="0.2.8.0.0.0.0.0.3.0.0.4"/>
             <rect  x="5.0296" height="1.9768" id="rect51" fill="#8c8c8c" width="0.732002" y="11.3712" gorn="0.2.8.0.0.0.0.0.3.0.0.5"/>
             <rect  x="6.464" height="1.9768" id="rect53" fill="#8c8c8c" width="0.732802" y="11.3712" gorn="0.2.8.0.0.0.0.0.3.0.0.6"/>
             <rect  x="7.8984" height="1.9768" id="rect55" fill="#8c8c8c" width="0.732802" y="11.3712" gorn="0.2.8.0.0.0.0.0.3.0.0.7"/>
             <rect  x="9.33278" height="1.9768" id="rect57" fill="#8c8c8c" width="0.732802" y="11.3712" gorn="0.2.8.0.0.0.0.0.3.0.0.8"/>
             <rect  x="10.768" height="1.9768" id="rect59" fill="#8c8c8c" width="0.732802" y="11.3712" gorn="0.2.8.0.0.0.0.0.3.0.0.9"/>
             <rect  x="0.725602" height="1.9768" id="rect61" fill="#8c8c8c" width="0.732802" y="0" gorn="0.2.8.0.0.0.0.0.3.0.0.10"/>
             <rect  x="2.1608" height="1.9768" id="rect63" fill="#8c8c8c" width="0.732802" y="0" gorn="0.2.8.0.0.0.0.0.3.0.0.11"/>
             <rect  x="3.596" height="1.9768" id="rect65" fill="#8c8c8c" width="0.732002" y="0" gorn="0.2.8.0.0.0.0.0.3.0.0.12"/>
             <rect  x="5.0296" height="1.9768" id="rect67" fill="#8c8c8c" width="0.732002" y="0" gorn="0.2.8.0.0.0.0.0.3.0.0.13"/>
             <rect  x="6.464" height="1.9768" id="rect69" fill="#8c8c8c" width="0.732802" y="0" gorn="0.2.8.0.0.0.0.0.3.0.0.14"/>
             <rect  x="7.8984" height="1.9768" id="rect71" fill="#8c8c8c" width="0.732802" y="0" gorn="0.2.8.0.0.0.0.0.3.0.0.15"/>
             <rect  x="9.33278" height="1.9768" id="rect73" fill="#8c8c8c" width="0.732802" y="0" gorn="0.2.8.0.0.0.0.0.3.0.0.16"/>
             <rect  x="10.768" height="1.9768" id="rect75" fill="#8c8c8c" width="0.732802" y="0" gorn="0.2.8.0.0.0.0.0.3.0.0.17"/>
             <g transform="matrix(1, 0, 0, 1, -11.3787, -16.404)">
              <g >
               <g >
                <polygon  id="polygon77" fill="#141414" points="27.8112,18.7592,27.8112,27.3344,28.6816,27.3408,29.1488,28.36,29.1488,17.5984,28.6816,18.7592" gorn="0.2.8.0.0.0.0.0.3.0.0.18.0.0"/>
               </g>
              </g>
             </g>
             <g transform="matrix(1, 0, 0, 1, -17.0488, -16.404)">
              <g >
               <g >
                <polygon  id="polygon79" fill="#1f1f1f" points="17.0488,28.36,17.0488,17.5984,17.516,18.7592,17.516,19.8352,20.16,19.8352,20.16,26.056,17.516,26.056,17.516,27.3408" gorn="0.2.8.0.0.0.0.0.3.0.0.19.0.0"/>
               </g>
              </g>
             </g>
             <path  id="path81" fill="#303030" connector-curvature="0" d="m0.4672,2.3552,0,8.58722,16.8602,0,0,-8.58722,-16.8602,0z" gorn="0.2.8.0.0.0.0.0.3.0.0.20"/>
             <circle  id="circle83" fill="#212121" r="0.971201" cy="9.37037" cx="2.1408" gorn="0.2.8.0.0.0.0.0.3.0.0.21"/>
             <rect  x="12.1663" style="overflow:visible;" height="1.9768" id="rect53-2" fill="#8c8c8c" width="0.732802" y="11.3879" gorn="0.2.8.0.0.0.0.0.3.0.0.22"/>
             <rect  x="13.6007" style="overflow:visible;" height="1.9768" id="rect55-7" fill="#8c8c8c" width="0.732802" y="11.3879" gorn="0.2.8.0.0.0.0.0.3.0.0.23"/>
             <rect  x="15.0351" style="overflow:visible;" height="1.9768" id="rect57-9" fill="#8c8c8c" width="0.732802" y="11.3879" gorn="0.2.8.0.0.0.0.0.3.0.0.24"/>
             <rect  x="16.4703" style="overflow:visible;" height="1.9768" id="rect59-9" fill="#8c8c8c" width="0.732802" y="11.3879" gorn="0.2.8.0.0.0.0.0.3.0.0.25"/>
             <rect  x="12.1663" style="overflow:visible;" height="1.9768" id="rect69-0" fill="#8c8c8c" width="0.732802" y="0.0166666" gorn="0.2.8.0.0.0.0.0.3.0.0.26"/>
             <rect  x="13.6007" style="overflow:visible;" height="1.9768" id="rect71-1" fill="#8c8c8c" width="0.732802" y="0.0166666" gorn="0.2.8.0.0.0.0.0.3.0.0.27"/>
             <rect  x="15.0351" style="overflow:visible;" height="1.9768" id="rect73-6" fill="#8c8c8c" width="0.732802" y="0.0166666" gorn="0.2.8.0.0.0.0.0.3.0.0.28"/>
             <rect  x="16.4703" style="overflow:visible;" height="1.9768" id="rect75-1" fill="#8c8c8c" width="0.732802" y="0.0166666" gorn="0.2.8.0.0.0.0.0.3.0.0.29"/>
            </g>
           </g>
          </g>
         </g>
        </g>
       </g>
      </g>
     </g>
    </g>
   </g>
  </g>
 </g>
</g>
</g></svg>