<?xml version='1.0' encoding='UTF-8' standalone='no'?>
<!-- Created with Fritzing (http://www.fritzing.org/) -->
<svg xmlns:svg='http://www.w3.org/2000/svg' xmlns='http://www.w3.org/2000/svg' version='1.2' baseProfile='tiny' x='0in' y='0in' width='1.1in' height='0.675in' viewBox='0 0 79.2 48.6' >
<g partID='57600'><g  id="breadboard" gorn="0.2">
 <g  id="icon" gorn="0.2.0">
  <path  stroke-width="0" fill="#014cb1" d="M79.2,7.2L79.2,41.4A7.2,7.2,0,0,1,72,48.6L7.2,48.6A7.2,7.2,0,0,1,0,41.4L0,7.2A7.2,7.2,0,0,1,7.2,0L72,0A7.2,7.2,0,0,1,79.2,7.2M70.5827,43.2a1.41732,1.41732,0,1,0,2.83465,0,1.41732,1.41732,0,1,0,-2.83465,0zM63.3827,43.2a1.41732,1.41732,0,1,0,2.83465,0,1.41732,1.41732,0,1,0,-2.83465,0zM56.1827,43.2a1.41732,1.41732,0,1,0,2.83465,0,1.41732,1.41732,0,1,0,-2.83465,0zM48.9827,43.2a1.41732,1.41732,0,1,0,2.83465,0,1.41732,1.41732,0,1,0,-2.83465,0zM41.7827,43.2a1.41732,1.41732,0,1,0,2.83465,0,1.41732,1.41732,0,1,0,-2.83465,0zM34.5827,43.2a1.41732,1.41732,0,1,0,2.83465,0,1.41732,1.41732,0,1,0,-2.83465,0zM27.3827,43.2a1.41732,1.41732,0,1,0,2.83465,0,1.41732,1.41732,0,1,0,-2.83465,0zM20.1827,43.2a1.41732,1.41732,0,1,0,2.83465,0,1.41732,1.41732,0,1,0,-2.83465,0zM12.9827,43.2a1.41732,1.41732,0,1,0,2.83465,0,1.41732,1.41732,0,1,0,-2.83465,0zM5.78268,43.2a1.41732,1.41732,0,1,0,2.83465,0,1.41732,1.41732,0,1,0,-2.83465,0zM68.4567,7.2a3.54331,3.54331,0,1,0,7.08661,0,3.54331,3.54331,0,1,0,-7.08661,0zM3.65669,7.2a3.54331,3.54331,0,1,0,7.08661,0,3.54331,3.54331,0,1,0,-7.08661,0z" stroke="none"/>
  <g >
   <title >layer 21</title>
   <g >
    <title >text:A3</title>
    <g transform="matrix(1, 0, 0, 1, 73.9008, 34.56)">
     <g >
      <g >
       <g >
        <g >
         <g transform="rotate(270)">
          <g >
           <g >
            <g >
             <g >
              <text  x="0" stroke-width="0" fill="#ffffff" text-anchor="end" font-family="OCRA" font-size="3.3408" y="0" stroke="none">A3</text>
             </g>
            </g>
           </g>
          </g>
         </g>
        </g>
       </g>
      </g>
     </g>
    </g>
   </g>
   <g >
    <title >text:A2</title>
    <g transform="matrix(1, 0, 0, 1, 66.7008, 34.56)">
     <g >
      <g >
       <g >
        <g >
         <g transform="rotate(270)">
          <g >
           <g >
            <g >
             <g >
              <text  x="0" stroke-width="0" fill="#ffffff" text-anchor="end" font-family="OCRA" font-size="3.3408" y="0" stroke="none">A2</text>
             </g>
            </g>
           </g>
          </g>
         </g>
        </g>
       </g>
      </g>
     </g>
    </g>
   </g>
   <g >
    <title >text:A1</title>
    <g transform="matrix(1, 0, 0, 1, 59.5008, 34.56)">
     <g >
      <g >
       <g >
        <g >
         <g transform="rotate(270)">
          <g >
           <g >
            <g >
             <g >
              <text  x="0" stroke-width="0" fill="#ffffff" text-anchor="end" font-family="OCRA" font-size="3.3408" y="0" stroke="none">A1</text>
             </g>
            </g>
           </g>
          </g>
         </g>
        </g>
       </g>
      </g>
     </g>
    </g>
   </g>
   <g >
    <title >text:A0</title>
    <g transform="matrix(1, 0, 0, 1, 52.3008, 34.56)">
     <g >
      <g >
       <g >
        <g >
         <g transform="rotate(270)">
          <g >
           <g >
            <g >
             <g >
              <text  x="0" stroke-width="0" fill="#ffffff" text-anchor="end" font-family="OCRA" font-size="3.3408" y="0" stroke="none">A0</text>
             </g>
            </g>
           </g>
          </g>
         </g>
        </g>
       </g>
      </g>
     </g>
    </g>
   </g>
   <g >
    <title >text:ALRT</title>
    <g transform="matrix(1, 0, 0, 1, 45.1008, 29.52)">
     <g >
      <g >
       <g >
        <g >
         <g transform="rotate(270)">
          <g >
           <g >
            <g >
             <g >
              <text  x="0" stroke-width="0" fill="#ffffff" text-anchor="end" font-family="OCRA" font-size="3.3408" y="0" stroke="none">ALRT</text>
             </g>
            </g>
           </g>
          </g>
         </g>
        </g>
       </g>
      </g>
     </g>
    </g>
   </g>
   <g >
    <title >text:ADDR</title>
    <g transform="matrix(1, 0, 0, 1, 37.9008, 29.52)">
     <g >
      <g >
       <g >
        <g >
         <g transform="rotate(270)">
          <g >
           <g >
            <g >
             <g >
              <text  x="0" stroke-width="0" fill="#ffffff" text-anchor="end" font-family="OCRA" font-size="3.3408" y="0" stroke="none">ADDR</text>
             </g>
            </g>
           </g>
          </g>
         </g>
        </g>
       </g>
      </g>
     </g>
    </g>
   </g>
   <g >
    <title >text:SDA</title>
    <g transform="matrix(1, 0, 0, 1, 30.7008, 31.68)">
     <g >
      <g >
       <g >
        <g >
         <g transform="rotate(270)">
          <g >
           <g >
            <g >
             <g >
              <text  x="0" stroke-width="0" fill="#ffffff" text-anchor="end" font-family="OCRA" font-size="3.3408" y="0" stroke="none">SDA</text>
             </g>
            </g>
           </g>
          </g>
         </g>
        </g>
       </g>
      </g>
     </g>
    </g>
   </g>
   <g >
    <title >text:SCL</title>
    <g transform="matrix(1, 0, 0, 1, 24.2208, 31.68)">
     <g >
      <g >
       <g >
        <g >
         <g transform="rotate(270)">
          <g >
           <g >
            <g >
             <g >
              <text  x="0" stroke-width="0" fill="#ffffff" text-anchor="end" font-family="OCRA" font-size="3.3408" y="0" stroke="none">SCL</text>
             </g>
            </g>
           </g>
          </g>
         </g>
        </g>
       </g>
      </g>
     </g>
    </g>
   </g>
   <g >
    <title >text:GND</title>
    <g transform="matrix(1, 0, 0, 1, 16.3008, 31.68)">
     <g >
      <g >
       <g >
        <g >
         <g transform="rotate(270)">
          <g >
           <g >
            <g >
             <g >
              <text  x="0" stroke-width="0" fill="#ffffff" text-anchor="end" font-family="OCRA" font-size="3.3408" y="0" stroke="none">GND</text>
             </g>
            </g>
           </g>
          </g>
         </g>
        </g>
       </g>
      </g>
     </g>
    </g>
   </g>
   <g >
    <title >text:VDD</title>
    <g transform="matrix(1, 0, 0, 1, 9.1008, 31.68)">
     <g >
      <g >
       <g >
        <g >
         <g transform="rotate(270)">
          <g >
           <g >
            <g >
             <g >
              <text  x="0" stroke-width="0" fill="#ffffff" text-anchor="end" font-family="OCRA" font-size="3.3408" y="0" stroke="none">VDD</text>
             </g>
            </g>
           </g>
          </g>
         </g>
        </g>
       </g>
      </g>
     </g>
    </g>
   </g>
   <g >
    <title >text:ADS1015</title>
    <text  x="23.76" stroke-width="0" fill="#ffffff" text-anchor="start" font-family="OCRA" font-size="4.176" y="10.8" stroke="none">ADS1015</text>
   </g>
   <g >
    <title >text:12Bit I2C ADC+PGA</title>
    <text  x="13.68" stroke-width="0" fill="#ffffff" text-anchor="start" font-family="OCRA" font-size="4.176" y="5.76" stroke="none">12Bit I2C ADC+PGA</text>
   </g>
   <g >
    <title >element:C1</title>
    <g >
     <title >package:0805</title>
     <line  y2="16.2312" stroke-width="0.36" x2="66.3024" y1="11.1288" x1="66.3024" stroke-linecap="round" stroke="white"/>
     <line  y2="16.2312" stroke-width="0.36" x2="56.0976" y1="16.2312" x1="66.3024" stroke-linecap="round" stroke="white"/>
     <line  y2="11.1288" stroke-width="0.36" x2="56.0976" y1="16.2312" x1="56.0976" stroke-linecap="round" stroke="white"/>
     <line  y2="11.1288" stroke-width="0.36" x2="66.3024" y1="11.1288" x1="56.0976" stroke-linecap="round" stroke="white"/>
    </g>
   </g>
   <g >
    <title >element:C2</title>
    <g >
     <title >package:0805</title>
     <line  y2="30.6312" stroke-width="0.36" x2="15.9024" y1="25.5288" x1="15.9024" stroke-linecap="round" stroke="white"/>
     <line  y2="30.6312" stroke-width="0.36" x2="5.69764" y1="30.6312" x1="15.9024" stroke-linecap="round" stroke="white"/>
     <line  y2="25.5288" stroke-width="0.36" x2="5.69764" y1="30.6312" x1="5.69764" stroke-linecap="round" stroke="white"/>
     <line  y2="25.5288" stroke-width="0.36" x2="15.9024" y1="25.5288" x1="5.69764" stroke-linecap="round" stroke="white"/>
    </g>
   </g>
   <g >
    <title >element:FB1</title>
    <g >
     <title >package:0805</title>
     <line  y2="14.3376" stroke-width="0.36" x2="10.4712" y1="14.3376" x1="5.36882" stroke-linecap="round" stroke="white"/>
     <line  y2="24.5424" stroke-width="0.36" x2="10.4712" y1="14.3376" x1="10.4712" stroke-linecap="round" stroke="white"/>
     <line  y2="24.5424" stroke-width="0.36" x2="5.36882" y1="24.5424" x1="10.4712" stroke-linecap="round" stroke="white"/>
     <line  y2="14.3376" stroke-width="0.36" x2="5.36882" y1="24.5424" x1="5.36882" stroke-linecap="round" stroke="white"/>
    </g>
   </g>
   <g >
    <title >element:FB2</title>
    <g >
     <title >package:0805</title>
     <line  y2="14.3376" stroke-width="0.36" x2="16.9512" y1="14.3376" x1="11.8488" stroke-linecap="round" stroke="white"/>
     <line  y2="24.5424" stroke-width="0.36" x2="16.9512" y1="14.3376" x1="16.9512" stroke-linecap="round" stroke="white"/>
     <line  y2="24.5424" stroke-width="0.36" x2="11.8488" y1="24.5424" x1="16.9512" stroke-linecap="round" stroke="white"/>
     <line  y2="14.3376" stroke-width="0.36" x2="11.8488" y1="24.5424" x1="11.8488" stroke-linecap="round" stroke="white"/>
    </g>
   </g>
   <g >
    <title >element:FID1</title>
    <g >
     <title >package:FIDUCIAL_1MM</title>
    </g>
   </g>
   <g >
    <title >element:FID2</title>
    <g >
     <title >package:FIDUCIAL_1MM</title>
    </g>
   </g>
   <g >
    <title >element:JP1</title>
    <g >
     <title >package:1X10_ROUND70</title>
    </g>
   </g>
   <g >
    <title >element:R1</title>
    <g >
     <title >package:0805</title>
     <line  y2="24.5424" stroke-width="0.36" x2="19.0488" y1="24.5424" x1="24.1512" stroke-linecap="round" stroke="white"/>
     <line  y2="14.3376" stroke-width="0.36" x2="19.0488" y1="24.5424" x1="19.0488" stroke-linecap="round" stroke="white"/>
     <line  y2="14.3376" stroke-width="0.36" x2="24.1512" y1="14.3376" x1="19.0488" stroke-linecap="round" stroke="white"/>
     <line  y2="24.5424" stroke-width="0.36" x2="24.1512" y1="14.3376" x1="24.1512" stroke-linecap="round" stroke="white"/>
    </g>
   </g>
   <g >
    <title >element:R2</title>
    <g >
     <title >package:0805</title>
     <line  y2="24.5424" stroke-width="0.36" x2="26.2488" y1="24.5424" x1="31.3512" stroke-linecap="round" stroke="white"/>
     <line  y2="14.3376" stroke-width="0.36" x2="26.2488" y1="24.5424" x1="26.2488" stroke-linecap="round" stroke="white"/>
     <line  y2="14.3376" stroke-width="0.36" x2="31.3512" y1="14.3376" x1="26.2488" stroke-linecap="round" stroke="white"/>
     <line  y2="24.5424" stroke-width="0.36" x2="31.3512" y1="14.3376" x1="31.3512" stroke-linecap="round" stroke="white"/>
    </g>
   </g>
   <g >
    <title >element:R3</title>
    <g >
     <title >package:0805</title>
     <line  y2="14.3376" stroke-width="0.36" x2="38.5512" y1="14.3376" x1="33.4488" stroke-linecap="round" stroke="white"/>
     <line  y2="24.5424" stroke-width="0.36" x2="38.5512" y1="14.3376" x1="38.5512" stroke-linecap="round" stroke="white"/>
     <line  y2="24.5424" stroke-width="0.36" x2="33.4488" y1="24.5424" x1="38.5512" stroke-linecap="round" stroke="white"/>
     <line  y2="14.3376" stroke-width="0.36" x2="33.4488" y1="24.5424" x1="33.4488" stroke-linecap="round" stroke="white"/>
    </g>
   </g>
   <g >
    <title >element:R4</title>
    <g >
     <title >package:0805</title>
     <line  y2="24.5424" stroke-width="0.36" x2="40.6488" y1="24.5424" x1="45.7512" stroke-linecap="round" stroke="white"/>
     <line  y2="14.3376" stroke-width="0.36" x2="40.6488" y1="24.5424" x1="40.6488" stroke-linecap="round" stroke="white"/>
     <line  y2="14.3376" stroke-width="0.36" x2="45.7512" y1="14.3376" x1="40.6488" stroke-linecap="round" stroke="white"/>
     <line  y2="24.5424" stroke-width="0.36" x2="45.7512" y1="14.3376" x1="45.7512" stroke-linecap="round" stroke="white"/>
    </g>
   </g>
   <g >
    <title >element:U$13</title>
    <g >
     <title >package:MOUNTINGHOLE_2.5_PLATED</title>
     <circle  stroke-width="0.432" fill="none" cy="7.2" r="4.96063" cx="72" stroke="white"/>
    </g>
   </g>
   <g >
    <title >element:U$14</title>
    <g >
     <title >package:MOUNTINGHOLE_2.5_PLATED</title>
     <circle  stroke-width="0.432" fill="none" cy="7.2" r="4.96063" cx="7.2" stroke="white"/>
    </g>
   </g>
   <g >
    <title >element:U$15</title>
    <g >
     <title >package:ADAFRUIT_TEXT_20MM</title>
    </g>
   </g>
   <g >
    <title >element:U$16</title>
    <g >
     <title >package:ADAFRUIT_2.5MM</title>
    </g>
   </g>
   <g >
    <title >element:U1</title>
    <g >
     <title >package:MSOP10</title>
     <line  y2="25.5685" stroke-width="0.576" x2="65.1685" y1="17.6315" x1="65.1685" stroke-linecap="round" stroke="white"/>
     <line  y2="25.5685" stroke-width="0.576" x2="57.2315" y1="25.5685" x1="65.1685" stroke-linecap="round" stroke="white"/>
     <line  y2="17.6315" stroke-width="0.576" x2="57.2315" y1="25.5685" x1="57.2315" stroke-linecap="round" stroke="white"/>
     <line  y2="17.6315" stroke-width="0.576" x2="65.1685" y1="17.6315" x1="57.2315" stroke-linecap="round" stroke="white"/>
     <path  stroke-width="0.576" fill="none" d="M59.7827,19.3323A0.850392,0.850392,0,1,0,58.0819,19.3323" stroke="white"/>
     <line  y2="19.3323" stroke-width="0.576" x2="58.0819" y1="19.3323" x1="59.7827" stroke-linecap="round" stroke="white"/>
    </g>
   </g>
  </g>
  <rect  x="56.6646" height="4.25197" stroke-width="0" id="connector0pin" fill="#9A916C" width="3.68504" y="11.554" gorn="0.2.0.2" stroke="none"/>
  <rect  x="62.0504" height="4.25197" stroke-width="0" id="connector1pin" fill="#9A916C" width="3.68504" y="11.554" gorn="0.2.0.3" stroke="none"/>
  <rect  x="6.26457" height="4.25197" stroke-width="0" id="connector2pin" fill="#9A916C" width="3.68504" y="25.954" gorn="0.2.0.4" stroke="none"/>
  <rect  x="11.6504" height="4.25197" stroke-width="0" id="connector3pin" fill="#9A916C" width="3.68504" y="25.954" gorn="0.2.0.5" stroke="none"/>
  <g transform="matrix(0, -1, 1, 0, -14.2129, 30.0529)">
   <g >
    <g >
     <g >
      <g >
       <rect  x="6.07748" height="4.25197" stroke-width="0" id="connector4pin" fill="#9A916C" width="3.68504" y="20.0069" gorn="0.2.0.6.0.0.0.0" stroke="none"/>
      </g>
     </g>
    </g>
   </g>
  </g>
  <g transform="matrix(0, -1, 1, 0, -8.82706, 24.6671)">
   <g >
    <g >
     <g >
      <g >
       <rect  x="6.07748" height="4.25197" stroke-width="0" id="connector5pin" fill="#9A916C" width="3.68504" y="14.6211" gorn="0.2.0.7.0.0.0.0" stroke="none"/>
      </g>
     </g>
    </g>
   </g>
  </g>
  <g transform="matrix(0, -1, 1, 0, -7.73294, 36.5329)">
   <g >
    <g >
     <g >
      <g >
       <rect  x="12.5574" height="4.25197" stroke-width="0" id="connector6pin" fill="#9A916C" width="3.68504" y="20.0069" gorn="0.2.0.8.0.0.0.0" stroke="none"/>
      </g>
     </g>
    </g>
   </g>
  </g>
  <g transform="matrix(0, -1, 1, 0, -2.34708, 31.1471)">
   <g >
    <g >
     <g >
      <g >
       <rect  x="12.5574" height="4.25197" stroke-width="0" id="connector7pin" fill="#9A916C" width="3.68504" y="14.6211" gorn="0.2.0.9.0.0.0.0" stroke="none"/>
      </g>
     </g>
    </g>
   </g>
  </g>
  <g transform="matrix(-1, 0, 0, -1, 149.76, 63.36)">
   <g >
    <g >
     <g >
      <g >
       <rect  x="73.4623" height="2.83465" stroke-width="0" id="connector8pin" fill="#9A916C" width="2.83465" ry="1.41732" y="30.2627" rx="1.41732" gorn="0.2.0.10.0.0.0.0" stroke="none"/>
      </g>
     </g>
    </g>
   </g>
  </g>
  <g transform="matrix(-1, 0, 0, -1, 99.36, 19.44)">
   <g >
    <g >
     <g >
      <g >
       <rect  x="48.2627" height="2.83465" stroke-width="0" id="connector9pin" fill="#9A916C" width="2.83465" ry="1.41732" y="8.30268" rx="1.41732" gorn="0.2.0.11.0.0.0.0" stroke="none"/>
      </g>
     </g>
    </g>
   </g>
  </g>
  <circle  connectorname="AIN3" stroke-width="1.10268" id="connector10pin" fill="none" cy="43.2" r="1.96866" cx="72" gorn="0.2.0.12" stroke="#9A916C"/>
  <rect  x="71.995" height="0.01008" stroke-width="0" id="connector10terminal" fill="none" width="0.01008" y="45.715" gorn="0.2.0.13" stroke="none"/>
  <circle  connectorname="AIN2" stroke-width="1.10268" id="connector11pin" fill="none" cy="43.2" r="1.96866" cx="64.8" gorn="0.2.0.14" stroke="#9A916C"/>
  <rect  x="64.795" height="0.01008" stroke-width="0" id="connector11terminal" fill="none" width="0.01008" y="45.715" gorn="0.2.0.15" stroke="none"/>
  <circle  connectorname="AIN1" stroke-width="1.10268" id="connector12pin" fill="none" cy="43.2" r="1.96866" cx="57.6" gorn="0.2.0.16" stroke="#9A916C"/>
  <rect  x="57.595" height="0.01008" stroke-width="0" id="connector12terminal" fill="none" width="0.01008" y="45.715" gorn="0.2.0.17" stroke="none"/>
  <circle  connectorname="AIN0" stroke-width="1.10268" id="connector13pin" fill="none" cy="43.2" r="1.96866" cx="50.4" gorn="0.2.0.18" stroke="#9A916C"/>
  <rect  x="50.395" height="0.01008" stroke-width="0" id="connector13terminal" fill="none" width="0.01008" y="45.715" gorn="0.2.0.19" stroke="none"/>
  <circle  connectorname="ALERT" stroke-width="1.10268" id="connector14pin" fill="none" cy="43.2" r="1.96866" cx="43.2" gorn="0.2.0.20" stroke="#9A916C"/>
  <rect  x="43.195" height="0.01008" stroke-width="0" id="connector14terminal" fill="none" width="0.01008" y="45.715" gorn="0.2.0.21" stroke="none"/>
  <circle  connectorname="ADDR" stroke-width="1.10268" id="connector15pin" fill="none" cy="43.2" r="1.96866" cx="36" gorn="0.2.0.22" stroke="#9A916C"/>
  <rect  x="35.995" height="0.01008" stroke-width="0" id="connector15terminal" fill="none" width="0.01008" y="45.715" gorn="0.2.0.23" stroke="none"/>
  <circle  connectorname="SDA" stroke-width="1.10268" id="connector16pin" fill="none" cy="43.2" r="1.96866" cx="28.8" gorn="0.2.0.24" stroke="#9A916C"/>
  <rect  x="28.795" height="0.01008" stroke-width="0" id="connector16terminal" fill="none" width="0.01008" y="45.715" gorn="0.2.0.25" stroke="none"/>
  <circle  connectorname="SCL" stroke-width="1.10268" id="connector17pin" fill="none" cy="43.2" r="1.96866" cx="21.6" gorn="0.2.0.26" stroke="#9A916C"/>
  <rect  x="21.595" height="0.01008" stroke-width="0" id="connector17terminal" fill="none" width="0.01008" y="45.715" gorn="0.2.0.27" stroke="none"/>
  <circle  connectorname="GND" stroke-width="1.10268" id="connector18pin" fill="none" cy="43.2" r="1.96866" cx="14.4" gorn="0.2.0.28" stroke="#9A916C"/>
  <rect  x="14.395" height="0.01008" stroke-width="0" id="connector18terminal" fill="none" width="0.01008" y="45.715" gorn="0.2.0.29" stroke="none"/>
  <circle  connectorname="VDD" stroke-width="1.10268" id="connector19pin" fill="none" cy="43.2" r="1.96866" cx="7.2" gorn="0.2.0.30" stroke="#9A916C"/>
  <rect  x="7.19496" height="0.01008" stroke-width="0" id="connector19terminal" fill="none" width="0.01008" y="45.715" gorn="0.2.0.31" stroke="none"/>
  <g transform="matrix(0, 1, -1, 0, 38.3471, -4.85292)">
   <g >
    <g >
     <g >
      <g >
       <rect  x="19.7574" height="4.25197" stroke-width="0" id="connector20pin" fill="#9A916C" width="3.68504" y="14.6211" gorn="0.2.0.32.0.0.0.0" stroke="none"/>
      </g>
     </g>
    </g>
   </g>
  </g>
  <g transform="matrix(0, 1, -1, 0, 43.7329, 0.532913)">
   <g >
    <g >
     <g >
      <g >
       <rect  x="19.7574" height="4.25197" stroke-width="0" id="connector21pin" fill="#9A916C" width="3.68504" y="20.0069" gorn="0.2.0.33.0.0.0.0" stroke="none"/>
      </g>
     </g>
    </g>
   </g>
  </g>
  <g transform="matrix(0, 1, -1, 0, 45.5471, -12.0529)">
   <g >
    <g >
     <g >
      <g >
       <rect  x="26.9574" height="4.25197" stroke-width="0" id="connector22pin" fill="#9A916C" width="3.68504" y="14.6211" gorn="0.2.0.34.0.0.0.0" stroke="none"/>
      </g>
     </g>
    </g>
   </g>
  </g>
  <g transform="matrix(0, 1, -1, 0, 50.9329, -6.66708)">
   <g >
    <g >
     <g >
      <g >
       <rect  x="26.9574" height="4.25197" stroke-width="0" id="connector23pin" fill="#9A916C" width="3.68504" y="20.0069" gorn="0.2.0.35.0.0.0.0" stroke="none"/>
      </g>
     </g>
    </g>
   </g>
  </g>
  <g transform="matrix(0, -1, 1, 0, 13.8671, 58.1329)">
   <g >
    <g >
     <g >
      <g >
       <rect  x="34.1574" height="4.25197" stroke-width="0" id="connector24pin" fill="#9A916C" width="3.68504" y="20.0069" gorn="0.2.0.36.0.0.0.0" stroke="none"/>
      </g>
     </g>
    </g>
   </g>
  </g>
  <g transform="matrix(0, -1, 1, 0, 19.2529, 52.7471)">
   <g >
    <g >
     <g >
      <g >
       <rect  x="34.1574" height="4.25197" stroke-width="0" id="connector25pin" fill="#9A916C" width="3.68504" y="14.6211" gorn="0.2.0.37.0.0.0.0" stroke="none"/>
      </g>
     </g>
    </g>
   </g>
  </g>
  <g transform="matrix(0, 1, -1, 0, 59.9471, -26.4529)">
   <g >
    <g >
     <g >
      <g >
       <rect  x="41.3574" height="4.25197" stroke-width="0" id="connector26pin" fill="#9A916C" width="3.68504" y="14.6211" gorn="0.2.0.38.0.0.0.0" stroke="none"/>
      </g>
     </g>
    </g>
   </g>
  </g>
  <g transform="matrix(0, 1, -1, 0, 65.3329, -21.0671)">
   <g >
    <g >
     <g >
      <g >
       <rect  x="41.3574" height="4.25197" stroke-width="0" id="connector27pin" fill="#9A916C" width="3.68504" y="20.0069" gorn="0.2.0.39.0.0.0.0" stroke="none"/>
      </g>
     </g>
    </g>
   </g>
  </g>
  <circle  connectorname="P$1" stroke-width="0.992124" id="connector28pin" fill="none" cy="7.2" r="4.03937" cx="72" gorn="0.2.0.40" stroke="#9A916C"/>
  <circle  connectorname="P$1" stroke-width="0.992124" id="connector29pin" fill="none" cy="7.2" r="4.03937" cx="7.2" gorn="0.2.0.41" stroke="#9A916C"/>
  <g transform="matrix(0, 1, -1, 0, 73.9757, -36.4447)">
   <g >
    <g >
     <g >
      <g >
       <rect  x="54.8558" height="2.83465" stroke-width="0" id="connector30pin" fill="#9A916C" width="0.708661" y="17.348" gorn="0.2.0.42.0.0.0.0" stroke="none"/>
      </g>
     </g>
    </g>
   </g>
  </g>
  <g transform="matrix(0, 1, -1, 0, 75.3926, -35.0274)">
   <g >
    <g >
     <g >
      <g >
       <rect  x="54.8558" height="2.83465" stroke-width="0" id="connector31pin" fill="#9A916C" width="0.708661" y="18.7654" gorn="0.2.0.43.0.0.0.0" stroke="none"/>
      </g>
     </g>
    </g>
   </g>
  </g>
  <g transform="matrix(0, 1, -1, 0, 76.8103, -33.6101)">
   <g >
    <g >
     <g >
      <g >
       <rect  x="54.8558" height="2.83465" stroke-width="0" id="connector32pin" fill="#9A916C" width="0.708661" y="20.1827" gorn="0.2.0.44.0.0.0.0" stroke="none"/>
      </g>
     </g>
    </g>
   </g>
  </g>
  <g transform="matrix(0, 1, -1, 0, 78.2273, -32.1928)">
   <g >
    <g >
     <g >
      <g >
       <rect  x="54.8558" height="2.83465" stroke-width="0" id="connector33pin" fill="#9A916C" width="0.708661" y="21.6" gorn="0.2.0.45.0.0.0.0" stroke="none"/>
      </g>
     </g>
    </g>
   </g>
  </g>
  <g transform="matrix(0, 1, -1, 0, 79.645, -30.7755)">
   <g >
    <g >
     <g >
      <g >
       <rect  x="54.8558" height="2.83465" stroke-width="0" id="connector34pin" fill="#9A916C" width="0.708661" y="23.0173" gorn="0.2.0.46.0.0.0.0" stroke="none"/>
      </g>
     </g>
    </g>
   </g>
  </g>
  <g transform="matrix(0, -1, 1, 0, 42.7553, 91.6243)">
   <g >
    <g >
     <g >
      <g >
       <rect  x="66.8356" height="2.83465" stroke-width="0" id="connector35pin" fill="#9A916C" width="0.708661" y="23.0173" gorn="0.2.0.47.0.0.0.0" stroke="none"/>
      </g>
     </g>
    </g>
   </g>
  </g>
  <g transform="matrix(0, -1, 1, 0, 44.1726, 90.2074)">
   <g >
    <g >
     <g >
      <g >
       <rect  x="66.8356" height="2.83465" stroke-width="0" id="connector36pin" fill="#9A916C" width="0.708661" y="21.6" gorn="0.2.0.48.0.0.0.0" stroke="none"/>
      </g>
     </g>
    </g>
   </g>
  </g>
  <g transform="matrix(0, -1, 1, 0, 45.5899, 88.7897)">
   <g >
    <g >
     <g >
      <g >
       <rect  x="66.8356" height="2.83465" stroke-width="0" id="connector37pin" fill="#9A916C" width="0.708661" y="20.1827" gorn="0.2.0.49.0.0.0.0" stroke="none"/>
      </g>
     </g>
    </g>
   </g>
  </g>
  <g transform="matrix(0, -1, 1, 0, 47.0072, 87.3727)">
   <g >
    <g >
     <g >
      <g >
       <rect  x="66.8356" height="2.83465" stroke-width="0" id="connector38pin" fill="#9A916C" width="0.708661" y="18.7654" gorn="0.2.0.50.0.0.0.0" stroke="none"/>
      </g>
     </g>
    </g>
   </g>
  </g>
  <g transform="matrix(0, -1, 1, 0, 48.4245, 85.955)">
   <g >
    <g >
     <g >
      <g >
       <rect  x="66.8356" height="2.83465" stroke-width="0" id="connector39pin" fill="#9A916C" width="0.708661" y="17.348" gorn="0.2.0.51.0.0.0.0" stroke="none"/>
      </g>
     </g>
    </g>
   </g>
  </g>
 </g>
 <g transform="matrix(1, 0, 0, 1, 58.3655, 11.9085)">
  <g >
   <g >
    <g >
     <g  id="0805-cap" gorn="0.2.1.0.0.0">
      <path  fill="#DCDCDC" d="M5.386,3.543L0.283,3.543C0.127,3.543,0,3.416,0,3.26L0,0.283C0,0.127,0.127,0,0.283,0l5.102,0c0.157,0,0.283,0.127,0.283,0.283L5.668,3.26C5.669,3.416,5.542,3.543,5.386,3.543z"/>
      <rect  x="1.063" height="3.543" fill="#6E554B" width="3.543"/>
     </g>
    </g>
   </g>
  </g>
 </g>
 <g transform="matrix(1, 0, 0, 1, 7.9655, 26.3085)">
  <g >
   <g >
    <g >
     <g  id="0805-cap" gorn="0.2.2.0.0.0">
      <path  fill="#DCDCDC" d="M5.386,3.543L0.283,3.543C0.127,3.543,0,3.416,0,3.26L0,0.283C0,0.127,0.127,0,0.283,0l5.102,0c0.157,0,0.283,0.127,0.283,0.283L5.668,3.26C5.669,3.416,5.542,3.543,5.386,3.543z"/>
      <rect  x="1.063" height="3.543" fill="#6E554B" width="3.543"/>
     </g>
    </g>
   </g>
  </g>
 </g>
 <g transform="matrix(1, 0, 0, 1, 5.0855, 17.6685)">
  <g >
   <g >
    <g >
     <g  id="0805" gorn="0.2.3.0.0.0">
      <g transform="matrix(0, -1, 1, 0, 1.063, 4.606)">
       <g >
        <g >
         <g >
          <g >
           <path  fill="#DCDCDC" d="M5.386,3.543L0.283,3.543C0.127,3.543,0,3.416,0,3.26L0,0.283C0,0.127,0.127,0,0.283,0l5.102,0c0.157,0,0.283,0.127,0.283,0.283L5.668,3.26C5.669,3.416,5.542,3.543,5.386,3.543z"/>
           <rect  x="1.063" height="3.543" fill="#333333" width="3.543"/>
          </g>
         </g>
        </g>
       </g>
      </g>
     </g>
    </g>
   </g>
  </g>
 </g>
 <g transform="matrix(1, 0, 0, 1, 11.5655, 17.6685)">
  <g >
   <g >
    <g >
     <g  id="0805" gorn="0.2.4.0.0.0">
      <g transform="matrix(0, -1, 1, 0, 1.063, 4.606)">
       <g >
        <g >
         <g >
          <g >
           <path  fill="#DCDCDC" d="M5.386,3.543L0.283,3.543C0.127,3.543,0,3.416,0,3.26L0,0.283C0,0.127,0.127,0,0.283,0l5.102,0c0.157,0,0.283,0.127,0.283,0.283L5.668,3.26C5.669,3.416,5.542,3.543,5.386,3.543z"/>
           <rect  x="1.063" height="3.543" fill="#333333" width="3.543"/>
          </g>
         </g>
        </g>
       </g>
      </g>
     </g>
    </g>
   </g>
  </g>
 </g>
 <g transform="matrix(1, 0, 0, 1, 18.7655, 17.6685)">
  <g >
   <g >
    <g >
     <g  id="0805-res" gorn="0.2.5.0.0.0">
      <g transform="matrix(0, 1, -1, 0, 4.606, -1.063)">
       <g >
        <g >
         <g >
          <g >
           <path  fill="#DCDCDC" d="M5.386,3.543L0.283,3.543C0.127,3.543,0,3.416,0,3.26L0,0.283C0,0.127,0.127,0,0.283,0l5.102,0c0.157,0,0.283,0.127,0.283,0.283L5.668,3.26C5.669,3.416,5.542,3.543,5.386,3.543z"/>
           <rect  x="1.063" height="3.543" fill="#333333" width="3.543"/>
          </g>
         </g>
        </g>
       </g>
      </g>
     </g>
    </g>
   </g>
  </g>
 </g>
 <g transform="matrix(1, 0, 0, 1, 25.9655, 17.6685)">
  <g >
   <g >
    <g >
     <g  id="0805-res" gorn="0.2.6.0.0.0">
      <g transform="matrix(0, 1, -1, 0, 4.606, -1.063)">
       <g >
        <g >
         <g >
          <g >
           <path  fill="#DCDCDC" d="M5.386,3.543L0.283,3.543C0.127,3.543,0,3.416,0,3.26L0,0.283C0,0.127,0.127,0,0.283,0l5.102,0c0.157,0,0.283,0.127,0.283,0.283L5.668,3.26C5.669,3.416,5.542,3.543,5.386,3.543z"/>
           <rect  x="1.063" height="3.543" fill="#333333" width="3.543"/>
          </g>
         </g>
        </g>
       </g>
      </g>
     </g>
    </g>
   </g>
  </g>
 </g>
 <g transform="matrix(1, 0, 0, 1, 33.1655, 17.6685)">
  <g >
   <g >
    <g >
     <g  id="0805-res" gorn="0.2.7.0.0.0">
      <g transform="matrix(0, -1, 1, 0, 1.063, 4.606)">
       <g >
        <g >
         <g >
          <g >
           <path  fill="#DCDCDC" d="M5.386,3.543L0.283,3.543C0.127,3.543,0,3.416,0,3.26L0,0.283C0,0.127,0.127,0,0.283,0l5.102,0c0.157,0,0.283,0.127,0.283,0.283L5.668,3.26C5.669,3.416,5.542,3.543,5.386,3.543z"/>
           <rect  x="1.063" height="3.543" fill="#333333" width="3.543"/>
          </g>
         </g>
        </g>
       </g>
      </g>
     </g>
    </g>
   </g>
  </g>
 </g>
 <g transform="matrix(1, 0, 0, 1, 40.3655, 17.6685)">
  <g >
   <g >
    <g >
     <g  id="0805-res" gorn="0.2.8.0.0.0">
      <g transform="matrix(0, 1, -1, 0, 4.606, -1.063)">
       <g >
        <g >
         <g >
          <g >
           <path  fill="#DCDCDC" d="M5.386,3.543L0.283,3.543C0.127,3.543,0,3.416,0,3.26L0,0.283C0,0.127,0.127,0,0.283,0l5.102,0c0.157,0,0.283,0.127,0.283,0.283L5.668,3.26C5.669,3.416,5.542,3.543,5.386,3.543z"/>
           <rect  x="1.063" height="3.543" fill="#333333" width="3.543"/>
          </g>
         </g>
        </g>
       </g>
      </g>
     </g>
    </g>
   </g>
  </g>
 </g>
 <g transform="matrix(1, 0, 0, 1, 45.3621, 22.6263)">
  <g >
   <g >
    <g >
     <g  id="adafruit_2.5mm" gorn="0.2.9.0.0.0">
      <path  fill="#DCDCDC" d="M9.747,3.082c-0.023,-0.142,-0.1,-0.183,-0.286,-0.243C9.31903,2.794,8.37202,2.492,8.37202,2.492s-0.66,-0.249,-1.15,0.103c-0.066,0.048,-0.134,0.102,-0.203,0.16c0.058,-0.069,0.112,-0.137,0.159,-0.203c0.352,-0.49,0.101,-1.15,0.101,-1.15S6.976,0.455,6.93,0.313C6.87,0.127,6.83,0.05,6.687,0.028C6.545,0.005,6.483,0.066,6.369,0.225c-0.0869998,0.12,-0.667,0.928001,-0.667,0.928001S5.261,1.704,5.445,2.279C5.47,2.356,5.5,2.438,5.534,2.521C5.486,2.445,5.438,2.372,5.39,2.307C5.032,1.821,4.328,1.855,4.328,1.855S3.333,1.851,3.185,1.851c-0.195,0,-0.281,0.014,-0.347,0.143C2.773,2.122,2.811,2.2,2.927,2.358c0.0879998,0.12,0.677,0.921002,0.677,0.921002s0.388,0.59,0.991001,0.592c0.081,0,0.168,-0.003,0.257,-0.01C4.765,3.883,4.681,3.907,4.604,3.932c-0.573,0.19,-0.758002,0.870998,-0.758002,0.870998s-0.31,0.943999,-0.357,1.085C3.428,6.074,3.416,6.16,3.518,6.262C3.62,6.364,3.706,6.352,3.892,6.29c0.141,-0.046,1.085,-0.359,1.085,-0.359s0.681,-0.187,0.868997,-0.760003c0.025,-0.0769997,0.049,-0.16,0.07,-0.247C5.91,5.014,5.907,5.1,5.907,5.181c0.004,0.603,0.594,0.99,0.594,0.99s0.802001,0.588,0.922003,0.675C7.58102,6.962,7.659,7,7.78802,6.935C7.91597,6.869,7.93102,6.783,7.93001,6.588C7.929,6.439,7.92403,5.445,7.92403,5.445S7.95701,4.74,7.47,4.383C7.40498,4.335,7.33198,4.287,7.25602,4.24c0.0830002,0.034,0.165,0.064,0.242,0.0879998c0.575,0.183,1.125,-0.259,1.125,-0.259S9.42998,3.488,9.55001,3.401C9.70898,3.286,9.76903,3.224,9.747,3.082zM6.322,2.35c0.108,0.017,0.162,0.248,0.12,0.515C6.4,3.132,6.278,3.335,6.169,3.318C6.061,3.301,6.007,3.07,6.049,2.803C6.091,2.535,6.213,2.332,6.322,2.35zM4.933,3.059c0.05,-0.0979999,0.286,-0.0779998,0.527,0.045c0.241,0.123,0.397,0.302,0.347,0.399C5.757,3.601,5.521,3.581,5.28,3.458C5.038,3.335,4.883,3.157,4.933,3.059zM5.665,4.393C5.474,4.584,5.256,4.677,5.178,4.599C5.101,4.521,5.193,4.303,5.384,4.112C5.575,3.92,5.793,3.827,5.871,3.905C5.949,3.983,5.857,4.201,5.665,4.393zM6.719,4.842c-0.0979999,0.05,-0.277,-0.105,-0.4,-0.346C6.196,4.254,6.175,4.018,6.273,3.968c0.0979999,-0.05,0.277,0.105,0.4,0.346C6.796,4.556,6.817,4.792,6.719,4.842zM6.973,3.725C6.706,3.767,6.475,3.714,6.457,3.606C6.44,3.497,6.643,3.375,6.91,3.332c0.267,-0.043,0.498,0.011,0.515,0.119C7.443,3.56,7.24003,3.682,6.973,3.725z"/>
     </g>
    </g>
   </g>
  </g>
 </g>
 <g transform="matrix(1, 0, 0, 1, 57.0921, 16.044)">
  <g >
   <g >
    <g >
     <g  id="msop10" gorn="0.2.10.0.0.0">
      <g transform="matrix(0, 1, -1, 0, 9.66391, 1.4481)">
       <g >
        <g >
         <g >
          <g >
           <metadata  id="metadata19">
            <rdf:RDF xmlns:rdf="http://www.w3.org/1999/02/22-rdf-syntax-ns#">
             <cc:Work xmlns:cc="http://creativecommons.org/ns#" rdf:about="" xmlns:rdf="http://www.w3.org/1999/02/22-rdf-syntax-ns#">
              <dc:format xmlns:dc="http://purl.org/dc/elements/1.1/">image/svg+xml</dc:format>
              <dc:type xmlns:dc="http://purl.org/dc/elements/1.1/" rdf:resource="http://purl.org/dc/dcmitype/StillImage" xmlns:rdf="http://www.w3.org/1999/02/22-rdf-syntax-ns#"/>
              <dc:title xmlns:dc="http://purl.org/dc/elements/1.1/"/>
             </cc:Work>
            </rdf:RDF>
           </metadata>
           <defs  id="defs17"/>
           <rect  x="6.69827" height="11.112" id="rect3362" fill="#dcdcdc" width="0.68" y="0" gorn="0.2.10.0.0.0.0.0.0.0.2"/>
           <rect  x="0.859198" height="11.112" id="rect3" fill="#dcdcdc" width="0.68" y="0" gorn="0.2.10.0.0.0.0.0.0.0.3"/>
           <rect  x="2.3328" height="11.112" id="rect5" fill="#dcdcdc" width="0.68" y="0" gorn="0.2.10.0.0.0.0.0.0.0.4"/>
           <rect  x="3.8072" height="11.112" id="rect7" fill="#dcdcdc" width="0.68" y="0" gorn="0.2.10.0.0.0.0.0.0.0.5"/>
           <rect  x="5.2808" height="11.112" id="rect9" fill="#dcdcdc" width="0.68" y="0" gorn="0.2.10.0.0.0.0.0.0.0.6"/>
           <path  id="path11" fill="#333333" connector-curvature="0" nodetypes="sssssssss" d="m8.21578,2.5832,0,5.896c0,0.2504,-0.2032,0.4536,-0.4536,0.4536l-7.30858,0C0.2032,8.93282,0,8.72957,0,8.47922L0,2.5832C0,2.3328,0.2032,2.1296,0.4536,2.1296l7.30858,0c0.2504,0,0.4536,0.2032,0.4536,0.4536z" gorn="0.2.10.0.0.0.0.0.0.0.7"/>
           <circle  id="circle13" cy="7.79839" r="0.5672" cx="1.1336" gorn="0.2.10.0.0.0.0.0.0.0.8"/>
          </g>
         </g>
        </g>
       </g>
      </g>
     </g>
    </g>
   </g>
  </g>
 </g>
</g>
</g></svg>