M48
;DRILL file {KiCad (5.0.0)} date 10/20/18 13:56:49
;FORMAT={-:-/ absolute / inch / decimal}
FMAT,2
INCH,TZ
T1C0.0276
T2C0.0315
T3C0.0354
T4C0.0394
%
G90
G05
M72
T1
X4.9Y-4.1
X4.9Y-4.3
X4.9Y-2.8
X4.9Y-3.
X5.6Y-4.2
X5.6Y-4.4
X5.65Y-2.95
X5.65Y-3.15
T2
X5.85Y-4.2
X5.85Y-4.4953
X4.65Y-4.1
X4.65Y-4.3953
X5.1Y-4.1
X5.1Y-4.2
X5.1Y-4.3
X5.1Y-4.4
X5.4Y-4.1
X5.4Y-4.2
X5.4Y-4.3
X5.4Y-4.4
X4.65Y-2.8
X4.65Y-3.0953
X5.15Y-2.8
X5.15Y-2.9
X5.15Y-3.
X5.15Y-3.1
X5.45Y-2.8
X5.45Y-2.9
X5.45Y-3.
X5.45Y-3.1
X5.85Y-2.95
X5.85Y-3.2453
T3
X6.05Y-3.2
X6.15Y-3.2
X4.6Y-4.65
X4.6Y-3.3
X4.7Y-3.3
X6.05Y-4.45
X6.15Y-4.45
X4.7Y-4.65
T4
X6.497Y-3.3197G85X6.5561Y-3.3197
G05
X6.497Y-3.7803G85X6.5561Y-3.7803
G05
T0
M30
